<svg width="160" height="53" viewBox="0 0 160 53" fill="none" xmlns="http://www.w3.org/2000/svg">
<path d="M158.102 6.71432C158.363 6.80335 158.647 6.66361 158.736 6.40222C158.825 6.14082 158.685 5.85674 158.424 5.76771L158.102 6.71432ZM0.959001 43.8445C0.739699 44.0124 0.697964 44.3262 0.865787 44.5455L3.60057 48.1191C3.7684 48.3384 4.08222 48.3801 4.30151 48.2123C4.52081 48.0445 4.56254 47.7307 4.39472 47.5114L1.96379 44.3348L5.14037 41.9039C5.35967 41.7361 5.40139 41.4223 5.23358 41.203C5.06576 40.9837 4.75194 40.9419 4.53264 41.1098L0.959001 43.8445ZM153.333 4.1689C153.067 4.09288 152.79 4.24646 152.714 4.51193C152.638 4.7774 152.792 5.05423 153.057 5.13026L153.333 4.1689ZM142.833 2.85047C143.106 2.89253 143.361 2.70538 143.403 2.43246C143.445 2.15954 143.258 1.9042 142.985 1.86214L142.833 2.85047ZM132.42 1.10762C132.144 1.11262 131.924 1.34048 131.929 1.61658C131.934 1.89268 132.162 2.11245 132.438 2.10746L132.42 1.10762ZM122.129 3.35366C122.398 3.29174 122.566 3.02339 122.504 2.75428C122.442 2.48517 122.174 2.3172 121.904 2.37912L122.129 3.35366ZM111.856 5.8202C111.605 5.93467 111.494 6.23119 111.608 6.48249C111.723 6.73378 112.019 6.8447 112.271 6.73023L111.856 5.8202ZM103.119 11.7821C103.351 11.6335 103.42 11.3243 103.271 11.0916C103.122 10.8589 102.813 10.7908 102.58 10.9395L103.119 11.7821ZM93.9075 16.9616C93.6848 17.125 93.6367 17.4379 93.8001 17.6605C93.9634 17.8832 94.2763 17.9313 94.499 17.768L93.9075 16.9616ZM86.019 24.0336C86.2421 23.8709 86.2912 23.5582 86.1286 23.335C85.966 23.1118 85.6532 23.0627 85.43 23.2254L86.019 24.0336ZM76.7993 29.2017C76.5674 29.3517 76.501 29.6612 76.651 29.8931C76.8009 30.1249 77.1105 30.1914 77.3423 30.0414L76.7993 29.2017ZM68.2229 35.3864C68.4677 35.2585 68.5624 34.9564 68.4345 34.7117C68.3067 34.4669 68.0046 34.3722 67.7598 34.5L68.2229 35.3864ZM58.229 38.8257C57.9715 38.9253 57.8433 39.2148 57.9429 39.4724C58.0424 39.7299 58.3319 39.8581 58.5895 39.7585L58.229 38.8257ZM48.5124 42.9871C48.7798 42.9183 48.9408 42.6457 48.872 42.3783C48.8032 42.1108 48.5306 41.9498 48.2631 42.0186L48.5124 42.9871ZM37.9706 44.0643C37.6972 44.1035 37.5074 44.3569 37.5466 44.6302C37.5858 44.9035 37.8392 45.0933 38.1126 45.0541L37.9706 44.0643ZM27.6111 46.0391C27.8869 46.0261 28.1 45.792 28.087 45.5161C28.0741 45.2403 27.8399 45.0272 27.5641 45.0402L27.6111 46.0391ZM17.0444 45.0935C16.7684 45.084 16.537 45.3 16.5275 45.576C16.518 45.852 16.734 46.0834 17.01 46.0929L17.0444 45.0935ZM6.51626 45.3646C6.79096 45.3927 7.03647 45.1928 7.06462 44.9181C7.09277 44.6434 6.8929 44.3979 6.6182 44.3698L6.51626 45.3646ZM158.424 5.76771C156.681 5.17398 154.985 4.642 153.333 4.1689L153.057 5.13026C154.693 5.59861 156.373 6.12563 158.102 6.71432L158.424 5.76771ZM142.985 1.86214C139.229 1.28342 135.723 1.04787 132.42 1.10762L132.438 2.10746C135.68 2.0488 139.13 2.27985 142.833 2.85047L142.985 1.86214ZM121.904 2.37912C118.35 3.19701 115.029 4.37498 111.856 5.8202L112.271 6.73023C115.39 5.3095 118.647 4.15478 122.129 3.35366L121.904 2.37912ZM102.58 10.9395C99.6574 12.8073 96.7929 14.845 93.9075 16.9616L94.499 17.768C97.3782 15.6558 100.223 13.6328 103.119 11.7821L102.58 10.9395ZM85.43 23.2254C82.6621 25.2424 79.8073 27.2565 76.7993 29.2017L77.3423 30.0414C80.3718 28.0822 83.2431 26.0563 86.019 24.0336L85.43 23.2254ZM67.7598 34.5C64.7686 36.0629 61.607 37.5206 58.229 38.8257L58.5895 39.7585C62.0054 38.4387 65.2014 36.9651 68.2229 35.3864L67.7598 34.5ZM48.2631 42.0186C45.0283 42.8511 41.6068 43.5427 37.9706 44.0643L38.1126 45.0541C41.7847 44.5274 45.242 43.8287 48.5124 42.9871L48.2631 42.0186ZM27.5641 45.0402C24.2263 45.1971 20.725 45.2204 17.0444 45.0935L17.01 46.0929C20.7166 46.2207 24.2451 46.1973 27.6111 46.0391L27.5641 45.0402ZM6.6182 44.3698C4.8912 44.1928 3.12848 43.9853 1.32877 43.746L1.19695 44.7372C3.00637 44.9779 4.77906 45.1865 6.51626 45.3646L6.6182 44.3698ZM157.94 7.18762C158.463 7.36568 159.031 7.08621 159.209 6.56342C159.388 6.04062 159.108 5.47247 158.585 5.29441L157.94 7.18762ZM0.655127 43.4475C0.216539 43.7831 0.133083 44.4107 0.468714 44.8493L5.93829 51.9966C6.27392 52.4352 6.90156 52.5187 7.34015 52.183C7.77876 51.8474 7.86221 51.2198 7.52657 50.7812L2.66474 44.428L9.01788 39.5662C9.45647 39.2305 9.53994 38.6029 9.20429 38.1643C8.86865 37.7257 8.24102 37.6423 7.80242 37.9779L0.655127 43.4475ZM153.47 3.68823C152.939 3.53618 152.386 3.84333 152.234 4.37427C152.081 4.90521 152.389 5.45889 152.92 5.61094L153.47 3.68823ZM142.756 3.34464C143.302 3.42876 143.813 3.05445 143.897 2.50861C143.981 1.96277 143.607 1.45209 143.061 1.36797L142.756 3.34464ZM132.411 0.607701C131.859 0.617692 131.419 1.07343 131.429 1.62562C131.439 2.17782 131.895 2.61736 132.447 2.60738L132.411 0.607701ZM122.241 3.84093C122.779 3.71709 123.115 3.18038 122.991 2.64216C122.867 2.10394 122.331 1.76802 121.792 1.89185L122.241 3.84093ZM111.649 5.36518C111.146 5.59413 110.924 6.18716 111.153 6.68976C111.382 7.19235 111.975 7.41419 112.478 7.18525L111.649 5.36518ZM103.388 12.2035C103.853 11.9061 103.99 11.2878 103.692 10.8224C103.395 10.357 102.776 10.2208 102.311 10.5182L103.388 12.2035ZM93.6117 16.5585C93.1664 16.8852 93.0702 17.511 93.3969 17.9563C93.7236 18.4016 94.3494 18.4978 94.7947 18.1711L93.6117 16.5585ZM86.3134 24.4376C86.7598 24.1124 86.8579 23.4869 86.5327 23.0405C86.2074 22.5942 85.5819 22.496 85.1356 22.8213L86.3134 24.4376ZM76.5278 28.7818C76.064 29.0818 75.9312 29.7008 76.2311 30.1646C76.531 30.6283 77.1501 30.7612 77.6139 30.4613L76.5278 28.7818ZM68.4545 35.8295C68.944 35.5738 69.1334 34.9696 68.8777 34.4801C68.622 33.9906 68.0178 33.8011 67.5283 34.0569L68.4545 35.8295ZM58.0488 38.3594C57.5337 38.5584 57.2774 39.1374 57.4765 39.6526C57.6755 40.1677 58.2545 40.424 58.7697 40.2249L58.0488 38.3594ZM48.637 43.4713C49.1718 43.3337 49.4938 42.7885 49.3562 42.2536C49.2186 41.7188 48.6734 41.3968 48.1385 41.5344L48.637 43.4713ZM37.8996 43.5693C37.3529 43.6477 36.9733 44.1545 37.0517 44.7012C37.1301 45.2479 37.6369 45.6275 38.1836 45.5491L37.8996 43.5693ZM27.6346 46.5385C28.1862 46.5126 28.6124 46.0443 28.5865 45.4927C28.5605 44.941 28.0923 44.5148 27.5406 44.5407L27.6346 46.5385ZM17.0616 44.5938C16.5097 44.5748 16.0468 45.0068 16.0278 45.5588C16.0088 46.1107 16.4408 46.5736 16.9927 46.5926L17.0616 44.5938ZM6.46528 45.8619C7.01468 45.9183 7.50571 45.5185 7.56201 44.9691C7.61831 44.4197 7.21859 43.9287 6.66917 43.8724L6.46528 45.8619ZM158.585 5.29441C156.835 4.69816 155.13 4.16369 153.47 3.68823L152.92 5.61094C154.547 6.07692 156.219 6.60146 157.94 7.18762L158.585 5.29441ZM143.061 1.36797C139.279 0.785207 135.744 0.5474 132.411 0.607701L132.447 2.60738C135.659 2.54927 139.08 2.77807 142.756 3.34464L143.061 1.36797ZM121.792 1.89185C118.201 2.71812 114.848 3.90772 111.649 5.36518L112.478 7.18525C115.57 5.77675 118.795 4.63366 122.241 3.84093L121.792 1.89185ZM102.311 10.5182C99.3748 12.3945 96.5003 14.4395 93.6117 16.5585L94.7947 18.1711C97.6708 16.0613 100.505 14.0456 103.388 12.2035L102.311 10.5182ZM85.1356 22.8213C82.3716 24.8354 79.525 26.8436 76.5278 28.7818L77.6139 30.4613C80.6541 28.4951 83.5336 26.4633 86.3134 24.4376L85.1356 22.8213ZM67.5283 34.0569C64.5523 35.6118 61.4077 37.0616 58.0488 38.3594L58.7697 40.2249C62.2047 38.8977 65.4177 37.4161 68.4545 35.8295L67.5283 34.0569ZM48.1385 41.5344C44.9215 42.3623 41.5178 43.0503 37.8996 43.5693L38.1836 45.5491C41.8736 45.0198 45.3489 44.3175 48.637 43.4713L48.1385 41.5344ZM27.5406 44.5407C24.2169 44.697 20.7292 44.7202 17.0616 44.5938L16.9927 46.5926C20.7124 46.7208 24.2545 46.6974 27.6346 46.5385L27.5406 44.5407ZM6.66917 43.8724C4.94728 43.6959 3.18954 43.489 1.39467 43.2503L1.13105 45.2329C2.94531 45.4741 4.72298 45.6834 6.46528 45.8619L6.66917 43.8724Z" fill="#121F26" fill-opacity="0.32"/>
</svg>
