<svg width="163" height="48" viewBox="0 0 163 48" fill="none" xmlns="http://www.w3.org/2000/svg">
<path d="M156.963 1.47639C159.758 1.47639 162.033 3.69398 162.033 6.41926V41.736C162.033 44.4612 159.758 46.6788 156.963 46.6788H6.03704C3.24189 46.6788 0.967436 44.4612 0.967436 41.736V6.41926C0.967436 3.69398 3.24189 1.47639 6.03704 1.47639H156.963ZM156.963 0.533142H6.03704C2.71818 0.533142 0 3.18336 0 6.41926V41.736C0 44.9718 2.71818 47.6221 6.03704 47.6221H156.963C160.282 47.6221 163 44.9718 163 41.736V6.41926C163 3.18336 160.282 0.533142 156.963 0.533142Z" fill="#121F26"/>
<path d="M36.3751 23.8239C36.3401 20.0297 39.5615 18.1838 39.7088 18.0979C37.8844 15.5045 35.0566 15.1501 34.0629 15.1219C31.6879 14.8782 29.3842 16.5075 28.1744 16.5075C26.9404 16.5075 25.0774 15.1454 23.0695 15.1855C20.4856 15.2243 18.0684 16.6829 16.7426 18.9479C14.0067 23.5661 16.0472 30.3528 18.6685 34.0858C19.9797 35.914 21.5119 37.9553 23.5174 37.8835C25.4795 37.8046 26.2124 36.6639 28.5801 36.6639C30.9261 36.6639 31.6143 37.8835 33.6596 37.8376C35.7654 37.8046 37.0911 36.0011 38.3565 34.1564C39.8718 32.061 40.4803 29.9973 40.5044 29.8913C40.4549 29.8749 36.415 28.3715 36.3751 23.8239Z" fill="#121F26"/>
<path d="M32.5114 12.6662C33.5667 11.3795 34.2887 9.62897 34.0883 7.85254C32.5609 7.91846 30.6508 8.88261 29.5508 10.1411C28.5777 11.25 27.7083 13.0676 27.9329 14.777C29.6486 14.9018 31.4102 13.9329 32.5114 12.6662Z" fill="#121F26"/>
<path d="M59.223 12.3124C59.223 13.698 58.7968 14.741 57.9456 15.4415C57.1571 16.0878 56.0366 16.4115 54.5853 16.4115C53.8657 16.4115 53.2499 16.3809 52.7344 16.3197V8.74897C53.4069 8.64302 54.1313 8.58887 54.9137 8.58887C56.2962 8.58887 57.3382 8.882 58.0409 9.46825C58.8282 10.131 59.223 11.0787 59.223 12.3124ZM57.8888 12.3466C57.8888 11.4483 57.6449 10.7597 57.1571 10.2794C56.6693 9.80023 55.957 9.56008 55.0188 9.56008C54.6204 9.56008 54.2811 9.58598 53.9997 9.64013V15.3956C54.1555 15.4191 54.4404 15.4297 54.8546 15.4297C55.8229 15.4297 56.5703 15.1672 57.0967 14.6422C57.6232 14.1171 57.8888 13.3519 57.8888 12.3466Z" fill="#121F26"/>
<path d="M66.2968 13.5264C66.2968 14.3799 66.0468 15.0791 65.547 15.6277C65.023 16.1916 64.3287 16.473 63.4618 16.473C62.6263 16.473 61.961 16.2034 61.4647 15.6619C60.9697 15.1215 60.7222 14.4399 60.7222 13.6182C60.7222 12.7588 60.9769 12.0537 61.4889 11.5063C62.0008 10.9589 62.689 10.6846 63.556 10.6846C64.3915 10.6846 65.0628 10.9542 65.5711 11.4945C66.0541 12.0195 66.2968 12.6976 66.2968 13.5264ZM64.9843 13.5664C64.9843 13.0543 64.8708 12.6152 64.645 12.2491C64.3794 11.8065 64.0015 11.5851 63.5101 11.5851C63.0018 11.5851 62.6154 11.8065 62.3498 12.2491C62.1228 12.6152 62.0105 13.0614 62.0105 13.5888C62.0105 14.1009 62.124 14.54 62.3498 14.9061C62.6238 15.3487 63.0054 15.57 63.498 15.57C63.981 15.57 64.3601 15.3452 64.633 14.8943C64.8672 14.5211 64.9843 14.0785 64.9843 13.5664Z" fill="#121F26"/>
<path d="M75.7839 10.7939L74.003 16.3434H72.8439L72.1062 13.9336C71.919 13.332 71.7669 12.734 71.6486 12.1407H71.6256C71.5158 12.7505 71.3636 13.3473 71.168 13.9336L70.3844 16.3434H69.212L67.5374 10.7939H68.8377L69.4813 13.4321C69.637 14.056 69.765 14.6505 69.8677 15.2132H69.8906C69.9848 14.7494 70.1405 14.1584 70.3603 13.4439L71.168 10.7951H72.1992L72.9731 13.3874C73.1603 14.0195 73.3124 14.6282 73.4295 15.2144H73.4645C73.5502 14.6435 73.6794 14.0348 73.8509 13.3874L74.5415 10.7951H75.7839V10.7939Z" fill="#121F26"/>
<path d="M82.3415 16.3447H81.0762V13.1662C81.0762 12.1867 80.6946 11.697 79.9291 11.697C79.5536 11.697 79.2506 11.8312 79.0151 12.1008C78.7821 12.3704 78.6638 12.6882 78.6638 13.052V16.3435H77.3984V12.381C77.3984 11.8936 77.3827 11.365 77.3525 10.7929H78.4646L78.5237 11.6605H78.5587C78.706 11.3909 78.9258 11.1684 79.2144 10.9907C79.5573 10.7835 79.9412 10.6787 80.3614 10.6787C80.8927 10.6787 81.3346 10.8459 81.6859 11.1814C82.123 11.5922 82.3415 12.2056 82.3415 13.0202V16.3447Z" fill="#121F26"/>
<path d="M85.8308 16.3467H84.5667V8.25098H85.8308V16.3467Z" fill="#121F26"/>
<path d="M93.2826 13.5264C93.2826 14.3799 93.0327 15.0791 92.5328 15.6277C92.0088 16.1916 91.3133 16.473 90.4476 16.473C89.6109 16.473 88.9456 16.2034 88.4506 15.6619C87.9555 15.1215 87.708 14.4399 87.708 13.6182C87.708 12.7588 87.9628 12.0537 88.4747 11.5063C88.9867 10.9589 89.6749 10.6846 90.5406 10.6846C91.3773 10.6846 92.0474 10.9542 92.557 11.4945C93.0399 12.0195 93.2826 12.6976 93.2826 13.5264ZM91.969 13.5664C91.969 13.0543 91.8555 12.6152 91.6297 12.2491C91.3653 11.8065 90.9861 11.5851 90.4959 11.5851C89.9864 11.5851 89.6 11.8065 89.3356 12.2491C89.1086 12.6152 88.9963 13.0614 88.9963 13.5888C88.9963 14.1009 89.1098 14.54 89.3356 14.9061C89.6097 15.3487 89.9912 15.57 90.4838 15.57C90.9668 15.57 91.3447 15.3452 91.6176 14.8943C91.853 14.5211 91.969 14.0785 91.969 13.5664Z" fill="#121F26"/>
<path d="M99.4061 16.347H98.2699L98.1757 15.7078H98.1407C97.7519 16.2175 97.1977 16.473 96.4781 16.473C95.9408 16.473 95.5061 16.3046 95.1789 15.9703C94.8819 15.6666 94.7334 15.2887 94.7334 14.8402C94.7334 14.1621 95.0232 13.6453 95.6064 13.2874C96.1883 12.9295 97.0069 12.7541 98.061 12.7624V12.6588C98.061 11.9277 97.6674 11.5628 96.879 11.5628C96.3175 11.5628 95.8225 11.7005 95.3951 11.9736L95.1379 11.1637C95.6667 10.8447 96.3199 10.6846 97.0903 10.6846C98.5778 10.6846 99.324 11.4498 99.324 12.9802V15.0238C99.324 15.5783 99.3517 16.0197 99.4061 16.347ZM98.0924 14.4399V13.5841C96.6966 13.5605 95.9988 13.9337 95.9988 14.7024C95.9988 14.992 96.0784 15.2086 96.2414 15.3534C96.4044 15.4982 96.6121 15.57 96.8596 15.57C97.1373 15.57 97.3969 15.4841 97.6336 15.3134C97.8714 15.1415 98.0175 14.9238 98.0719 14.6565C98.0852 14.5965 98.0924 14.5235 98.0924 14.4399Z" fill="#121F26"/>
<path d="M106.594 16.3467H105.471L105.412 15.4556H105.377C105.019 16.1337 104.408 16.4727 103.549 16.4727C102.863 16.4727 102.292 16.2102 101.84 15.6851C101.387 15.1601 101.161 14.4785 101.161 13.6415C101.161 12.7433 101.406 12.0157 101.899 11.4601C102.376 10.9421 102.96 10.6831 103.655 10.6831C104.42 10.6831 104.955 10.9339 105.259 11.4365H105.283V8.25098H106.55V14.8517C106.55 15.392 106.564 15.89 106.594 16.3467ZM105.283 14.0064V13.0811C105.283 12.921 105.271 12.7915 105.248 12.6926C105.177 12.396 105.023 12.1464 104.79 11.9451C104.555 11.7438 104.271 11.6426 103.944 11.6426C103.472 11.6426 103.102 11.825 102.831 12.1911C102.562 12.5573 102.425 13.0246 102.425 13.5956C102.425 14.1442 102.554 14.5891 102.814 14.9317C103.088 15.2967 103.457 15.4791 103.92 15.4791C104.335 15.4791 104.667 15.3273 104.92 15.0224C105.164 14.741 105.283 14.402 105.283 14.0064Z" fill="#121F26"/>
<path d="M117.418 13.5264C117.418 14.3799 117.168 15.0791 116.668 15.6277C116.144 16.1916 115.451 16.473 114.583 16.473C113.749 16.473 113.083 16.2034 112.586 15.6619C112.091 15.1215 111.843 14.4399 111.843 13.6182C111.843 12.7588 112.098 12.0537 112.61 11.5063C113.122 10.9589 113.81 10.6846 114.678 10.6846C115.513 10.6846 116.185 10.9542 116.692 11.4945C117.175 12.0195 117.418 12.6976 117.418 13.5264ZM116.107 13.5664C116.107 13.0543 115.993 12.6152 115.767 12.2491C115.5 11.8065 115.124 11.5851 114.631 11.5851C114.124 11.5851 113.738 11.8065 113.471 12.2491C113.244 12.6152 113.132 13.0614 113.132 13.5888C113.132 14.1009 113.245 14.54 113.471 14.9061C113.745 15.3487 114.126 15.57 114.619 15.57C115.102 15.57 115.482 15.3452 115.755 14.8943C115.988 14.5211 116.107 14.0785 116.107 13.5664Z" fill="#121F26"/>
<path d="M124.219 16.3447H122.955V13.1662C122.955 12.1867 122.573 11.697 121.807 11.697C121.431 11.697 121.128 11.8312 120.894 12.1008C120.66 12.3704 120.542 12.6882 120.542 13.052V16.3435H119.276V12.381C119.276 11.8936 119.261 11.365 119.231 10.7929H120.342L120.401 11.6605H120.436C120.585 11.3909 120.804 11.1684 121.092 10.9907C121.436 10.7835 121.819 10.6787 122.24 10.6787C122.77 10.6787 123.212 10.8459 123.563 11.1814C124.002 11.5922 124.219 12.2056 124.219 13.0202V16.3447Z" fill="#121F26"/>
<path d="M132.737 11.7193H131.344V14.4151C131.344 15.1003 131.591 15.4428 132.082 15.4428C132.309 15.4428 132.497 15.424 132.645 15.3851L132.678 16.321C132.428 16.4129 132.1 16.4588 131.695 16.4588C131.195 16.4588 130.807 16.3104 130.525 16.0138C130.243 15.7171 130.103 15.218 130.103 14.5175V11.7193H129.271V10.7951H130.103V9.77803L131.343 9.41309V10.794H132.736V11.7193H132.737Z" fill="#121F26"/>
<path d="M139.437 16.3467H138.171V13.1918C138.171 12.197 137.789 11.6991 137.025 11.6991C136.438 11.6991 136.037 11.9875 135.817 12.5643C135.78 12.6856 135.758 12.8339 135.758 13.0081V16.3456H134.494V8.25098H135.758V11.5955H135.782C136.181 10.9868 136.752 10.6831 137.492 10.6831C138.016 10.6831 138.45 10.8503 138.794 11.1858C139.222 11.6037 139.437 12.2253 139.437 13.047V16.3467Z" fill="#121F26"/>
<path d="M146.344 13.3126C146.344 13.5339 146.328 13.7199 146.297 13.8717H142.502C142.519 14.4203 142.7 14.8382 143.052 15.1278C143.373 15.3868 143.787 15.5163 144.294 15.5163C144.856 15.5163 145.368 15.4292 145.829 15.2538L146.027 16.1108C145.487 16.3392 144.852 16.4534 144.117 16.4534C143.235 16.4534 142.541 16.2003 142.039 15.6941C141.534 15.1879 141.284 14.5086 141.284 13.6563C141.284 12.8193 141.517 12.1224 141.987 11.5667C142.477 10.9734 143.14 10.6768 143.977 10.6768C144.795 10.6768 145.417 10.9734 145.837 11.5667C146.177 12.0376 146.344 12.6204 146.344 13.3126ZM145.137 12.9935C145.147 12.6274 145.063 12.3119 144.892 12.0459C144.672 11.7033 144.338 11.5314 143.885 11.5314C143.472 11.5314 143.135 11.6986 142.878 12.0341C142.668 12.3013 142.544 12.6204 142.502 12.9935H145.137Z" fill="#121F26"/>
<path d="M64.7732 37.6245H62.0312L60.5292 33.0227H55.3084L53.8776 37.6245H51.208L56.3805 21.958H59.5753L64.7732 37.6245ZM60.0764 31.0921L58.7181 27.0012C58.5744 26.5833 58.3052 25.5992 57.9079 24.0499H57.8596C57.7014 24.7162 57.4467 25.7004 57.0965 27.0012L55.7624 31.0921H60.0764Z" fill="#121F26"/>
<path d="M78.0761 31.838C78.0761 33.7592 77.5436 35.2778 76.4787 36.3927C75.5249 37.3851 74.3404 37.8807 72.9265 37.8807C71.4004 37.8807 70.304 37.3462 69.6363 36.2773H69.588V42.2282H67.0138V30.0474C67.0138 28.8396 66.9812 27.6 66.9185 26.3286H69.1823L69.326 28.1191H69.3743C70.2328 26.7701 71.5356 26.0967 73.2839 26.0967C74.6507 26.0967 75.7917 26.6229 76.7045 27.6765C77.6197 28.7313 78.0761 30.1181 78.0761 31.838ZM75.4536 31.9298C75.4536 30.8303 75.2001 29.9238 74.6905 29.2104C74.1339 28.4664 73.3865 28.0944 72.4496 28.0944C71.8145 28.0944 71.2374 28.3016 70.7218 28.7101C70.205 29.1221 69.8669 29.6601 69.7088 30.3264C69.6291 30.6372 69.5892 30.8915 69.5892 31.0916V32.9752C69.5892 33.7969 69.8476 34.4903 70.3644 35.0565C70.8812 35.6228 71.5525 35.9053 72.3784 35.9053C73.3479 35.9053 74.1025 35.5404 74.6422 34.8128C75.1832 34.0841 75.4536 33.1235 75.4536 31.9298Z" fill="#121F26"/>
<path d="M91.4028 31.838C91.4028 33.7592 90.8703 35.2778 89.8042 36.3927C88.8515 37.3851 87.6671 37.8807 86.2532 37.8807C84.727 37.8807 83.6307 37.3462 82.9642 36.2773H82.9159V42.2282H80.3417V30.0474C80.3417 28.8396 80.3091 27.6 80.2463 26.3286H82.5102L82.6539 28.1191H82.7022C83.5595 26.7701 84.8623 26.0967 86.6118 26.0967C87.9774 26.0967 89.1184 26.6229 90.0336 27.6765C90.9452 28.7313 91.4028 30.1181 91.4028 31.838ZM88.7803 31.9298C88.7803 30.8303 88.5255 29.9238 88.016 29.2104C87.4594 28.4664 86.7144 28.0944 85.7763 28.0944C85.14 28.0944 84.564 28.3016 84.0473 28.7101C83.5305 29.1221 83.1936 29.6601 83.0354 30.3264C82.957 30.6372 82.9159 30.8915 82.9159 31.0916V32.9752C82.9159 33.7969 83.1743 34.4903 83.6887 35.0565C84.2054 35.6216 84.8768 35.9053 85.705 35.9053C86.6746 35.9053 87.4292 35.5404 87.9689 34.8128C88.5098 34.0841 88.7803 33.1235 88.7803 31.9298Z" fill="#121F26"/>
<path d="M106.3 33.2321C106.3 34.5648 105.826 35.649 104.873 36.486C103.826 37.4007 102.369 37.8575 100.496 37.8575C98.7674 37.8575 97.3813 37.5325 96.3321 36.8815L96.9286 34.7896C98.0587 35.4559 99.2987 35.7902 100.65 35.7902C101.619 35.7902 102.374 35.576 102.916 35.1498C103.456 34.7237 103.725 34.1516 103.725 33.4382C103.725 32.8025 103.503 32.2668 103.057 31.8324C102.614 31.398 101.874 30.9942 100.841 30.6211C98.0273 29.5981 96.6219 28.0995 96.6219 26.1288C96.6219 24.8409 97.1145 23.7849 98.101 22.9632C99.0838 22.1403 100.395 21.7295 102.035 21.7295C103.497 21.7295 104.712 21.9779 105.681 22.4735L105.038 24.5195C104.132 24.0392 103.108 23.7991 101.962 23.7991C101.057 23.7991 100.349 24.0168 99.842 24.4501C99.4134 24.8374 99.1985 25.3094 99.1985 25.8686C99.1985 26.4878 99.4436 26.9999 99.9362 27.4025C100.365 27.7745 101.144 28.1771 102.274 28.6115C103.656 29.1542 104.672 29.7888 105.325 30.5163C105.976 31.2415 106.3 32.1491 106.3 33.2321Z" fill="#121F26"/>
<path d="M114.812 28.211H111.975V33.6957C111.975 35.0907 112.475 35.7876 113.477 35.7876C113.937 35.7876 114.318 35.7488 114.62 35.6711L114.691 37.577C114.184 37.7618 113.517 37.8548 112.69 37.8548C111.673 37.8548 110.878 37.5523 110.305 36.9483C109.734 36.3433 109.446 35.3285 109.446 33.9029V28.2086H107.756V26.3251H109.446V24.2567L111.975 23.5127V26.3251H114.812V28.211Z" fill="#121F26"/>
<path d="M127.616 31.8866C127.616 33.623 127.106 35.0487 126.09 36.1635C125.024 37.3113 123.609 37.8834 121.845 37.8834C120.145 37.8834 118.791 37.3337 117.782 36.2341C116.772 35.1346 116.268 33.7467 116.268 32.0738C116.268 30.3233 116.787 28.8894 117.829 27.7746C118.868 26.6586 120.271 26.1006 122.035 26.1006C123.735 26.1006 125.103 26.6503 126.136 27.7511C127.123 28.8188 127.616 30.1973 127.616 31.8866ZM124.945 31.9679C124.945 30.926 124.717 30.0325 124.255 29.2873C123.715 28.3856 122.943 27.9359 121.944 27.9359C120.909 27.9359 120.123 28.3868 119.583 29.2873C119.121 30.0337 118.892 30.9413 118.892 32.015C118.892 33.0568 119.121 33.9503 119.583 34.6943C120.14 35.5961 120.917 36.0458 121.921 36.0458C122.903 36.0458 123.675 35.5867 124.232 34.6708C124.706 33.9115 124.945 33.0085 124.945 31.9679Z" fill="#121F26"/>
<path d="M135.981 28.5359C135.726 28.49 135.454 28.4664 135.169 28.4664C134.264 28.4664 133.563 28.7996 133.071 29.4671C132.642 30.0557 132.427 30.7997 132.427 31.6979V37.6252H129.854L129.878 29.8862C129.878 28.5842 129.846 27.3987 129.782 26.3298H132.024L132.118 28.4912H132.189C132.461 27.7483 132.89 27.1503 133.476 26.7018C134.05 26.298 134.669 26.0967 135.337 26.0967C135.575 26.0967 135.79 26.1132 135.981 26.1426V28.5359Z" fill="#121F26"/>
<path d="M147.494 31.4422C147.494 31.8919 147.464 32.2709 147.4 32.5805H139.677C139.707 33.6965 140.08 34.55 140.798 35.1386C141.448 35.6649 142.29 35.9286 143.323 35.9286C144.467 35.9286 145.51 35.7508 146.448 35.3941L146.851 37.1364C145.755 37.6026 144.461 37.8345 142.967 37.8345C141.171 37.8345 139.76 37.3189 138.734 36.2888C137.71 35.2587 137.197 33.8755 137.197 32.1402C137.197 30.4368 137.674 29.0183 138.629 27.8869C139.629 26.6791 140.98 26.0752 142.68 26.0752C144.35 26.0752 145.614 26.6791 146.472 27.8869C147.152 28.8464 147.494 30.033 147.494 31.4422ZM145.039 30.7912C145.056 30.0471 144.888 29.4044 144.539 28.8617C144.094 28.1636 143.409 27.8151 142.488 27.8151C141.646 27.8151 140.962 28.1553 140.439 28.8381C140.01 29.3808 139.756 30.0318 139.677 30.79H145.039V30.7912Z" fill="#121F26"/>
</svg>
