<svg width="169" height="102" viewBox="0 0 169 102" fill="none" xmlns="http://www.w3.org/2000/svg">
<path d="M167.865 1.2906C168.026 1.06584 167.974 0.753585 167.749 0.593145C167.524 0.432704 167.212 0.484839 167.052 0.709592L167.865 1.2906ZM0.611298 94.384C0.437624 94.5987 0.470872 94.9135 0.685551 95.0872L4.18409 97.9174C4.39877 98.0911 4.7136 98.0579 4.88728 97.8432C5.06096 97.6285 5.02772 97.3137 4.81302 97.14L1.70323 94.6242L4.219 91.5144C4.39267 91.2997 4.35943 90.9849 4.14475 90.8112C3.93005 90.6375 3.61522 90.6708 3.44155 90.8855L0.611298 94.384ZM164.128 4.762C163.966 4.98513 164.015 5.2979 164.238 5.46059C164.461 5.62327 164.774 5.57428 164.936 5.35114L164.128 4.762ZM158.988 13.3217C159.156 13.1023 159.114 12.7885 158.895 12.6208C158.675 12.453 158.361 12.4948 158.194 12.7141L158.988 13.3217ZM152.039 20.5383C151.865 20.7529 151.898 21.0678 152.113 21.2416C152.328 21.4154 152.642 21.3824 152.816 21.1678L152.039 20.5383ZM146.429 28.7971C146.61 28.5884 146.588 28.2727 146.379 28.0918C146.17 27.911 145.855 27.9335 145.674 28.1422L146.429 28.7971ZM139.019 35.53C138.83 35.7314 138.84 36.0479 139.042 36.2368C139.243 36.4257 139.559 36.4156 139.748 36.2142L139.019 35.53ZM132.765 43.3314C132.963 43.1389 132.967 42.8223 132.775 42.6243C132.582 42.4263 132.266 42.4219 132.068 42.6144L132.765 43.3314ZM124.784 49.3398C124.576 49.5216 124.555 49.8375 124.737 50.0454C124.919 50.2532 125.235 50.2743 125.442 50.0924L124.784 49.3398ZM117.742 56.4463C117.96 56.277 118 55.9629 117.831 55.7448C117.661 55.5266 117.347 55.4871 117.129 55.6564L117.742 56.4463ZM109.108 61.4903C108.88 61.6456 108.821 61.9566 108.976 62.1849C109.131 62.4133 109.442 62.4726 109.67 62.3174L109.108 61.4903ZM101.238 67.6547C101.476 67.5147 101.556 67.2083 101.416 66.9703C101.276 66.7322 100.97 66.6527 100.732 66.7926L101.238 67.6547ZM92.0247 71.5355C91.778 71.6597 91.6787 71.9603 91.8029 72.2069C91.9271 72.4536 92.2277 72.5529 92.4743 72.4287L92.0247 71.5355ZM83.4197 76.6351C83.6736 76.5265 83.7914 76.2327 83.6829 75.9788C83.5743 75.7249 83.2804 75.6071 83.0265 75.7157L83.4197 76.6351ZM73.7983 79.3483C73.5386 79.4422 73.4042 79.7288 73.498 79.9885C73.5919 80.2482 73.8785 80.3826 74.1382 80.2887L73.7983 79.3483ZM64.6791 83.4319C64.9432 83.3514 65.0921 83.072 65.0116 82.8078C64.9311 82.5437 64.6517 82.3948 64.3875 82.4753L64.6791 83.4319ZM54.8202 85.1542C54.5528 85.2228 54.3916 85.4953 54.4603 85.7628C54.529 86.0302 54.8014 86.1914 55.0689 86.1227L54.8202 85.1542ZM45.3718 88.4114C45.6417 88.353 45.8131 88.0868 45.7546 87.8169C45.6962 87.547 45.43 87.3756 45.1601 87.4341L45.3718 88.4114ZM35.4165 89.3762C35.1448 89.426 34.965 89.6865 35.0147 89.9581C35.0645 90.2298 35.325 90.4096 35.5966 90.3599L35.4165 89.3762ZM25.7766 92.0183C26.0494 91.9758 26.2362 91.7202 26.1938 91.4474C26.1514 91.1745 25.8958 90.9877 25.6229 91.0301L25.7766 92.0183ZM15.764 92.4465C15.4903 92.4828 15.2978 92.7342 15.3341 93.0079C15.3704 93.2817 15.6217 93.4741 15.8954 93.4378L15.764 92.4465ZM6.03284 94.6498C6.30722 94.6185 6.50433 94.3708 6.47312 94.0964C6.4419 93.8221 6.19417 93.6249 5.9198 93.6562L6.03284 94.6498ZM167.052 0.709592C166.073 2.08031 165.099 3.43101 164.128 4.762L164.936 5.35114C165.909 4.01735 166.885 2.66394 167.865 1.2906L167.052 0.709592ZM158.194 12.7141C156.132 15.4096 154.082 18.0166 152.039 20.5383L152.816 21.1678C154.865 18.6384 156.921 16.024 158.988 13.3217L158.194 12.7141ZM145.674 28.1422C143.456 30.7009 141.24 33.1621 139.019 35.53L139.748 36.2142C141.979 33.8362 144.204 31.3651 146.429 28.7971L145.674 28.1422ZM132.068 42.6144C129.658 44.9575 127.233 47.1976 124.784 49.3398L125.442 50.0924C127.905 47.9382 130.343 45.6861 132.765 43.3314L132.068 42.6144ZM117.129 55.6564C114.495 57.7012 111.825 59.6439 109.108 61.4903L109.67 62.3174C112.405 60.4588 115.092 58.5038 117.742 56.4463L117.129 55.6564ZM100.732 66.7926C97.8905 68.463 94.9917 70.0419 92.0247 71.5355L92.4743 72.4287C95.4606 70.9255 98.3785 69.3361 101.238 67.6547L100.732 66.7926ZM83.0265 75.7157C80.0267 76.9985 76.9538 78.2076 73.7983 79.3483L74.1382 80.2887C77.311 79.1418 80.4018 77.9257 83.4197 76.6351L83.0265 75.7157ZM64.3875 82.4753C61.281 83.422 58.0945 84.3136 54.8202 85.1542L55.0689 86.1227C58.3567 85.2787 61.5576 84.3832 64.6791 83.4319L64.3875 82.4753ZM45.1601 87.4341C41.9942 88.1197 38.7483 88.766 35.4165 89.3762L35.5966 90.3599C38.9383 89.7478 42.1947 89.0995 45.3718 88.4114L45.1601 87.4341ZM25.6229 91.0301C22.4149 91.529 19.1301 92.0002 15.764 92.4465L15.8954 93.4378C19.2684 92.9906 22.5607 92.5183 25.7766 92.0183L25.6229 91.0301ZM5.9198 93.6562C4.28102 93.8426 2.62374 94.0242 0.947521 94.2012L1.05253 95.1957C2.73135 95.0184 4.3913 94.8365 6.03284 94.6498L5.9198 93.6562ZM168.272 1.5811C168.593 1.1316 168.489 0.507076 168.039 0.186196C167.59 -0.134685 166.965 -0.030415 166.645 0.419089L168.272 1.5811ZM0.222571 94.0695C-0.124779 94.4989 -0.0582961 95.1286 0.371076 95.4759L7.36813 101.136C7.79752 101.484 8.42718 101.417 8.77454 100.988C9.12189 100.559 9.05541 99.9289 8.62603 99.5815L2.40642 94.55L7.43796 88.3304C7.78532 87.901 7.71883 87.2713 7.28946 86.924C6.86008 86.5766 6.23043 86.6431 5.88306 87.0725L0.222571 94.0695ZM163.724 4.46743C163.399 4.9137 163.497 5.53923 163.943 5.8646C164.39 6.18998 165.015 6.09198 165.34 5.64571L163.724 4.46743ZM159.385 13.6255C159.721 13.1868 159.637 12.5592 159.198 12.2236C158.76 11.8881 158.132 11.9716 157.796 12.4103L159.385 13.6255ZM151.651 20.2236C151.303 20.6528 151.369 21.2825 151.798 21.6301C152.227 21.9777 152.857 21.9117 153.205 21.4825L151.651 20.2236ZM146.807 29.1246C147.169 28.7072 147.124 28.0757 146.706 27.714C146.289 27.3523 145.658 27.3974 145.296 27.8148L146.807 29.1246ZM138.654 35.1879C138.276 35.5907 138.297 36.2236 138.699 36.6014C139.102 36.9793 139.735 36.9591 140.113 36.5563L138.654 35.1879ZM133.113 43.6899C133.509 43.3049 133.518 42.6718 133.133 42.2758C132.748 41.8798 132.115 41.8709 131.719 42.2559L133.113 43.6899ZM124.455 48.9635C124.039 49.3272 123.997 49.9589 124.361 50.3746C124.724 50.7902 125.356 50.8324 125.772 50.4687L124.455 48.9635ZM118.049 56.8413C118.485 56.5026 118.564 55.8744 118.226 55.4382C117.887 55.0019 117.259 54.9228 116.822 55.2615L118.049 56.8413ZM108.827 61.0768C108.37 61.3873 108.252 62.0092 108.562 62.466C108.873 62.9228 109.495 63.0414 109.951 62.7309L108.827 61.0768ZM101.492 68.0857C101.968 67.8058 102.127 67.1929 101.847 66.7168C101.567 66.2407 100.954 66.0817 100.478 66.3616L101.492 68.0857ZM91.7999 71.0889C91.3066 71.3372 91.108 71.9384 91.3563 72.4317C91.6046 72.925 92.2058 73.1236 92.6992 72.8753L91.7999 71.0889ZM83.6163 77.0948C84.1241 76.8777 84.3597 76.29 84.1426 75.7822C83.9254 75.2744 83.3377 75.0388 82.8299 75.2559L83.6163 77.0948ZM73.6283 78.8781C73.1089 79.0658 72.8401 79.6391 73.0278 80.1585C73.2156 80.6779 73.7888 80.9467 74.3082 80.7589L73.6283 78.8781ZM64.8248 83.9101C65.3531 83.7491 65.6509 83.1903 65.4899 82.6621C65.3288 82.1338 64.7701 81.836 64.2418 81.997L64.8248 83.9101ZM54.6959 84.6699C54.161 84.8072 53.8387 85.3522 53.976 85.8871C54.1133 86.422 54.6583 86.7444 55.1933 86.607L54.6959 84.6699ZM45.4776 88.9001C46.0174 88.7832 46.3602 88.2509 46.2433 87.7111C46.1264 87.1713 45.5941 86.8285 45.0543 86.9454L45.4776 88.9001ZM35.3264 88.8844C34.7831 88.9839 34.4234 89.505 34.5229 90.0482C34.6224 90.5915 35.1434 90.9512 35.6867 90.8517L35.3264 88.8844ZM25.8534 92.5123C26.3991 92.4275 26.7727 91.9163 26.6879 91.3706C26.603 90.8248 26.0918 90.4512 25.5461 90.5361L25.8534 92.5123ZM15.6983 91.9509C15.1508 92.0235 14.7658 92.5261 14.8384 93.0736C14.911 93.6211 15.4137 94.0061 15.9612 93.9335L15.6983 91.9509ZM6.08937 95.1466C6.63812 95.0841 7.03235 94.5887 6.96992 94.0399C6.90747 93.4912 6.41202 93.0969 5.86327 93.1594L6.08937 95.1466ZM166.645 0.419089C165.667 1.7885 164.694 3.13784 163.724 4.46743L165.34 5.64571C166.314 4.31052 167.291 2.95575 168.272 1.5811L166.645 0.419089ZM157.796 12.4103C155.737 15.1024 153.69 17.7057 151.651 20.2236L153.205 21.4825C155.257 18.9492 157.315 16.3312 159.385 13.6255L157.796 12.4103ZM145.296 27.8148C143.083 30.3688 140.871 32.8251 138.654 35.1879L140.113 36.5563C142.349 34.1732 144.578 31.6972 146.807 29.1246L145.296 27.8148ZM131.719 42.2559C129.315 44.5932 126.896 46.8273 124.455 48.9635L125.772 50.4687C128.241 48.3084 130.685 46.0505 133.113 43.6899L131.719 42.2559ZM116.822 55.2615C114.197 57.2999 111.535 59.2364 108.827 61.0768L109.951 62.7309C112.695 60.8663 115.39 58.905 118.049 56.8413L116.822 55.2615ZM100.478 66.3616C97.6466 68.0264 94.7573 69.6002 91.7999 71.0889L92.6992 72.8753C95.695 71.3672 98.6224 69.7727 101.492 68.0857L100.478 66.3616ZM82.8299 75.2559C79.8392 76.5349 76.7751 77.7405 73.6283 78.8781L74.3082 80.7589C77.4896 79.6089 80.5893 78.3894 83.6163 77.0948L82.8299 75.2559ZM64.2418 81.997C61.1427 82.9415 57.9634 83.831 54.6959 84.6699L55.1933 86.607C58.4879 85.7612 61.6959 84.8637 64.8248 83.9101L64.2418 81.997ZM45.0543 86.9454C41.8939 87.6299 38.6533 88.2751 35.3264 88.8844L35.6867 90.8517C39.0333 90.2388 42.295 89.5894 45.4776 88.9001L45.0543 86.9454ZM25.5461 90.5361C22.342 91.0343 19.061 91.505 15.6983 91.9509L15.9612 93.9335C19.3376 93.4858 22.6335 93.013 25.8534 92.5123L25.5461 90.5361ZM5.86327 93.1594C4.22589 93.3457 2.56995 93.5271 0.895016 93.704L1.10504 95.6929C2.78514 95.5155 4.44643 95.3335 6.08937 95.1466L5.86327 93.1594Z" fill="#121F26" fill-opacity="0.32"/>
</svg>
