<svg width="175" height="56" viewBox="0 0 175 56" fill="none" xmlns="http://www.w3.org/2000/svg">
<path d="M0.944979 3.24557C0.670514 3.27597 0.472662 3.52311 0.503062 3.79758C0.533463 4.07204 0.780604 4.26989 1.05507 4.23949L0.944979 3.24557ZM173.416 53.2442C173.689 53.2032 173.877 52.9487 173.836 52.6756L173.169 48.2253C173.128 47.9522 172.874 47.764 172.601 47.805C172.327 47.8459 172.139 48.1005 172.18 48.3736L172.773 52.3294L168.818 52.9225C168.544 52.9634 168.356 53.218 168.397 53.4911C168.438 53.7642 168.693 53.9524 168.966 53.9114L173.416 53.2442ZM6.17674 3.69843C6.4515 3.67086 6.65189 3.42577 6.62432 3.15101C6.59675 2.87625 6.35166 2.67586 6.07689 2.70343L6.17674 3.69843ZM16.3245 1.79517C16.0491 1.81613 15.8429 2.05634 15.8639 2.33168C15.8848 2.60703 16.125 2.81325 16.4004 2.79229L16.3245 1.79517ZM26.6187 2.15993C26.8946 2.14704 27.1077 1.91298 27.0949 1.63714C27.082 1.3613 26.8479 1.14813 26.5721 1.16102L26.6187 2.15993ZM36.8724 0.857244C36.5963 0.860339 36.375 1.08669 36.3781 1.36282C36.3811 1.63894 36.6075 1.86028 36.8836 1.85718L36.8724 0.857244ZM47.1357 1.95231C47.4117 1.96084 47.6424 1.74401 47.6509 1.468C47.6595 1.19199 47.4426 0.961322 47.1666 0.952788L47.1357 1.95231ZM57.4448 1.51681C57.1695 1.49478 56.9285 1.70007 56.9065 1.97533C56.8845 2.25059 57.0898 2.49159 57.365 2.51362L57.4448 1.51681ZM67.5474 3.60725C67.821 3.64445 68.073 3.45278 68.1102 3.17916C68.1474 2.90553 67.9557 2.65356 67.6821 2.61637L67.5474 3.60725ZM77.8412 4.30646C77.5703 4.25289 77.3073 4.42906 77.2537 4.69996C77.2001 4.97085 77.3763 5.23389 77.6472 5.28746L77.8412 4.30646ZM87.6229 7.58637C87.89 7.65681 88.1635 7.49746 88.234 7.23046C88.3044 6.96345 88.145 6.68989 87.878 6.61945L87.6229 7.58637ZM97.7498 9.55774C97.4877 9.47078 97.2047 9.61276 97.1178 9.87485C97.0308 10.1369 97.1728 10.4199 97.4349 10.5069L97.7498 9.55774ZM107.052 14.0217C107.309 14.124 107.6 13.9991 107.702 13.7426C107.804 13.4861 107.679 13.1952 107.423 13.0929L107.052 14.0217ZM116.878 17.172C116.628 17.0559 116.331 17.1649 116.214 17.4154C116.098 17.666 116.207 17.9632 116.458 18.0793L116.878 17.172ZM125.652 22.6149C125.897 22.7428 126.199 22.6481 126.327 22.4033C126.454 22.1586 126.36 21.8565 126.115 21.7286L125.652 22.6149ZM135.136 26.688C134.897 26.5502 134.591 26.6324 134.453 26.8717C134.316 27.111 134.398 27.4167 134.637 27.5545L135.136 26.688ZM143.42 32.8228C143.654 32.9688 143.963 32.8971 144.109 32.6627C144.255 32.4283 144.183 32.12 143.949 31.974L143.42 32.8228ZM152.602 37.542C152.372 37.3894 152.061 37.4522 151.909 37.6824C151.756 37.9125 151.819 38.2228 152.049 38.3754L152.602 37.542ZM160.532 44.1515C160.759 44.3095 161.071 44.254 161.229 44.0275C161.387 43.8011 161.331 43.4894 161.105 43.3314L160.532 44.1515ZM169.474 49.2945C169.25 49.1322 168.938 49.1817 168.775 49.4051C168.613 49.6285 168.663 49.9412 168.886 50.1035L169.474 49.2945ZM1.05507 4.23949C2.78183 4.04823 4.48879 3.86781 6.17674 3.69843L6.07689 2.70343C4.38539 2.87316 2.67502 3.05395 0.944979 3.24557L1.05507 4.23949ZM16.4004 2.79229C19.8847 2.52706 23.2881 2.31554 26.6187 2.15993L26.5721 1.16102C23.231 1.31712 19.8178 1.52926 16.3245 1.79517L16.4004 2.79229ZM36.8836 1.85718C40.3745 1.81806 43.7882 1.84881 47.1357 1.95231L47.1666 0.952788C43.8043 0.848826 40.3764 0.817976 36.8724 0.857244L36.8836 1.85718ZM57.365 2.51362C60.818 2.78993 64.2077 3.15328 67.5474 3.60725L67.6821 2.61637C64.3235 2.15982 60.9154 1.79453 57.4448 1.51681L57.365 2.51362ZM77.6472 5.28746C81.0063 5.95176 84.3266 6.71673 87.6229 7.58637L87.878 6.61945C84.5614 5.74445 81.2206 4.97478 77.8412 4.30646L77.6472 5.28746ZM97.4349 10.5069C100.645 11.5719 103.846 12.7422 107.052 14.0217L107.423 13.0929C104.199 11.8063 100.979 10.6292 97.7498 9.55774L97.4349 10.5069ZM116.458 18.0793C119.502 19.4897 122.563 21.0004 125.652 22.6149L126.115 21.7286C123.013 20.1072 119.938 18.5894 116.878 17.172L116.458 18.0793ZM134.637 27.5545C137.529 29.22 140.453 30.9753 143.42 32.8228L143.949 31.974C140.973 30.1208 138.038 28.3596 135.136 26.688L134.637 27.5545ZM152.049 38.3754C154.833 40.2216 157.658 42.1463 160.532 44.1515L161.105 43.3314C158.224 41.3221 155.392 39.3929 152.602 37.542L152.049 38.3754ZM168.886 50.1035C170.26 51.102 171.646 52.118 173.045 53.1518L173.639 52.3476C172.239 51.3123 170.85 50.2947 169.474 49.2945L168.886 50.1035ZM0.889934 2.74861C0.341006 2.80941 -0.0546989 3.30369 0.00610162 3.85262C0.0669021 4.40155 0.561184 4.79726 1.11011 4.73645L0.889934 2.74861ZM173.49 53.7387C174.036 53.6568 174.413 53.1476 174.331 52.6014L172.996 43.7009C172.915 43.1547 172.405 42.7784 171.859 42.8602C171.313 42.9421 170.937 43.4513 171.019 43.9975L172.205 51.909L164.293 53.0952C163.747 53.1771 163.371 53.6863 163.452 54.2324C163.534 54.7786 164.043 55.155 164.59 55.0731L173.49 53.7387ZM6.22666 4.19594C6.77618 4.14079 7.17696 3.65062 7.12182 3.10109C7.06668 2.55156 6.5765 2.15079 6.02697 2.20593L6.22666 4.19594ZM16.2865 1.29662C15.7358 1.33853 15.3234 1.81894 15.3653 2.36963C15.4072 2.92032 15.8876 3.33276 16.4383 3.29085L16.2865 1.29662ZM26.6421 2.65939C27.1937 2.63361 27.6201 2.16549 27.5943 1.61381C27.5685 1.06212 27.1004 0.63579 26.5487 0.661565L26.6421 2.65939ZM36.8668 0.357276C36.3146 0.363465 35.8719 0.816169 35.8781 1.36842C35.8843 1.92067 36.337 2.36334 36.8892 2.35715L36.8668 0.357276ZM47.1203 2.45207C47.6723 2.46914 48.1336 2.03547 48.1507 1.48345C48.1678 0.931433 47.7341 0.470096 47.1821 0.453027L47.1203 2.45207ZM57.4847 1.0184C56.9342 0.974346 56.4522 1.38492 56.4081 1.93545C56.3641 2.48597 56.7746 2.96797 57.3252 3.01203L57.4847 1.0184ZM67.4801 4.1027C68.0273 4.17709 68.5313 3.79376 68.6056 3.2465C68.68 2.69925 68.2967 2.19531 67.7495 2.12092L67.4801 4.1027ZM77.9382 3.81596C77.3964 3.70881 76.8703 4.06116 76.7632 4.60295C76.656 5.14475 77.0084 5.67081 77.5502 5.77796L77.9382 3.81596ZM87.4954 8.06983C88.0294 8.21071 88.5765 7.89202 88.7174 7.358C88.8583 6.82399 88.5396 6.27688 88.0056 6.13599L87.4954 8.06983ZM97.9072 9.08318C97.3831 8.90926 96.8171 9.19321 96.6432 9.7174C96.4693 10.2416 96.7533 10.8075 97.2774 10.9814L97.9072 9.08318ZM106.867 14.486C107.38 14.6907 107.962 14.4409 108.166 13.9279C108.371 13.415 108.121 12.8332 107.608 12.6285L106.867 14.486ZM117.089 16.7183C116.587 16.4861 115.993 16.7041 115.761 17.2053C115.529 17.7064 115.747 18.3008 116.248 18.533L117.089 16.7183ZM125.42 23.058C125.91 23.3138 126.514 23.1244 126.77 22.6349C127.026 22.1455 126.836 21.5413 126.347 21.2855L125.42 23.058ZM135.386 26.2547C134.907 25.9791 134.296 26.1436 134.02 26.6222C133.745 27.1007 133.909 27.7122 134.388 27.9878L135.386 26.2547ZM143.156 33.2473C143.624 33.5392 144.241 33.3959 144.533 32.9271C144.825 32.4583 144.682 31.8415 144.213 31.5496L143.156 33.2473ZM152.878 37.1254C152.418 36.8201 151.797 36.9458 151.492 37.406C151.187 37.8663 151.312 38.4868 151.773 38.7921L152.878 37.1254ZM160.246 44.5616C160.699 44.8776 161.323 44.7666 161.639 44.3136C161.955 43.8607 161.844 43.2373 161.391 42.9213L160.246 44.5616ZM169.768 48.89C169.321 48.5654 168.696 48.6644 168.371 49.1112C168.046 49.5581 168.145 50.1834 168.592 50.5081L169.768 48.89ZM1.11011 4.73645C2.83524 4.54537 4.54049 4.36513 6.22666 4.19594L6.02697 2.20593C4.33369 2.37584 2.62161 2.55681 0.889934 2.74861L1.11011 4.73645ZM16.4383 3.29085C19.9182 3.02596 23.3167 2.81475 26.6421 2.65939L26.5487 0.661565C23.2024 0.817909 19.7844 1.03036 16.2865 1.29662L16.4383 3.29085ZM36.8892 2.35715C40.3735 2.3181 43.7802 2.3488 47.1203 2.45207L47.1821 0.453027C43.8123 0.348834 40.3774 0.317934 36.8668 0.357276L36.8892 2.35715ZM57.3252 3.01203C60.7693 3.28763 64.1499 3.65001 67.4801 4.1027L67.7495 2.12092C64.3813 1.66309 60.9641 1.29682 57.4847 1.0184L57.3252 3.01203ZM77.5502 5.77796C80.8991 6.44025 84.2093 7.20288 87.4954 8.06983L88.0056 6.13599C84.6788 5.2583 81.3278 4.4863 77.9382 3.81596L77.5502 5.77796ZM97.2774 10.9814C100.478 12.0433 103.67 13.2102 106.867 14.486L107.608 12.6285C104.375 11.3384 101.146 10.1578 97.9072 9.08318L97.2774 10.9814ZM116.248 18.533C119.284 19.9398 122.338 21.4471 125.42 23.058L126.347 21.2855C123.238 19.6606 120.156 18.1392 117.089 16.7183L116.248 18.533ZM134.388 27.9878C137.274 29.6503 140.194 31.4026 143.156 33.2473L144.213 31.5496C141.233 29.6936 138.293 27.9294 135.386 26.2547L134.388 27.9878ZM151.773 38.7921C154.553 40.636 157.375 42.5585 160.246 44.5616L161.391 42.9213C158.508 40.9099 155.672 38.9785 152.878 37.1254L151.773 38.7921ZM168.592 50.5081C169.965 51.5057 171.35 52.5209 172.747 53.5538L173.936 51.9456C172.535 50.9095 171.145 49.891 169.768 48.89L168.592 50.5081Z" fill="#121F26" fill-opacity="0.32"/>
</svg>
