<svg width="97" height="104" viewBox="0 0 97 104" fill="none" xmlns="http://www.w3.org/2000/svg">
<path d="M1.20123 101.649C0.981256 101.816 0.938258 102.129 1.10519 102.349C1.27212 102.569 1.58577 102.612 1.80575 102.445L1.20123 101.649ZM95.9895 3.59917C96.0447 3.32861 95.8702 3.06449 95.5996 3.00924L91.1906 2.1089C90.9201 2.05365 90.6559 2.22819 90.6007 2.49875C90.5455 2.76931 90.72 3.03343 90.9906 3.08868L94.9097 3.88898L94.1094 7.8081C94.0541 8.07866 94.2287 8.34278 94.4992 8.39803C94.7698 8.45328 95.0339 8.27874 95.0892 8.00818L95.9895 3.59917ZM5.7676 99.403C5.98562 99.2335 6.02499 98.9194 5.85552 98.7014C5.68606 98.4833 5.37193 98.444 5.1539 98.6134L5.7676 99.403ZM12.785 92.5233C12.5716 92.6985 12.5406 93.0135 12.7158 93.227C12.891 93.4404 13.2061 93.4714 13.4195 93.2962L12.785 92.5233ZM20.9529 86.9043C21.1603 86.7219 21.1806 86.406 20.9983 86.1986C20.816 85.9912 20.5 85.9709 20.2927 86.1532L20.9529 86.9043ZM27.4791 79.5673C27.2798 79.7584 27.2731 80.075 27.4642 80.2743C27.6553 80.4736 27.9718 80.4803 28.1712 80.2892L27.4791 79.5673ZM35.1056 73.2718C35.2938 73.0697 35.2826 72.7533 35.0805 72.5651C34.8784 72.3769 34.562 72.3881 34.3738 72.5902L35.1056 73.2718ZM40.7948 65.1908C40.6219 65.4061 40.6562 65.7208 40.8715 65.8937C41.0868 66.0667 41.4015 66.0323 41.5744 65.817L40.7948 65.1908ZM47.4164 57.8766C47.5702 57.6473 47.5091 57.3367 47.2798 57.1828C47.0505 57.029 46.7399 57.0901 46.586 57.3194L47.4164 57.8766ZM51.7245 48.9961C51.5867 49.2353 51.6689 49.5411 51.9082 49.6789C52.1475 49.8168 52.4532 49.7345 52.591 49.4953L51.7245 48.9961ZM57.4606 40.969C57.6008 40.7311 57.5217 40.4246 57.2838 40.2843C57.0459 40.1441 56.7394 40.2232 56.5992 40.4611L57.4606 40.969ZM61.998 32.1945C61.8342 32.4168 61.8817 32.7298 62.1041 32.8936C62.3264 33.0573 62.6394 33.0098 62.8032 32.7875L61.998 32.1945ZM69.0693 25.3107C69.2591 25.1101 69.2503 24.7936 69.0497 24.6038C68.8492 24.414 68.5327 24.4228 68.3429 24.6234L69.0693 25.3107ZM75.4575 17.8289C75.2494 18.0103 75.2278 18.3262 75.4093 18.5343C75.5907 18.7425 75.9066 18.7641 76.1147 18.5826L75.4575 17.8289ZM83.7111 12.4224C83.931 12.2553 83.9738 11.9417 83.8068 11.7218C83.6397 11.5019 83.326 11.4591 83.1061 11.6262L83.7111 12.4224ZM91.1056 5.85725C90.8781 6.01373 90.8205 6.32504 90.977 6.55256C91.1335 6.78008 91.4448 6.83766 91.6723 6.68117L91.1056 5.85725ZM1.80575 102.445C3.16445 101.414 4.48461 100.4 5.7676 99.403L5.1539 98.6134C3.87405 99.6082 2.55695 100.62 1.20123 101.649L1.80575 102.445ZM13.4195 93.2962C16.1191 91.08 18.6241 88.9518 20.9529 86.9043L20.2927 86.1532C17.9727 88.1929 15.4765 90.3138 12.785 92.5233L13.4195 93.2962ZM28.1712 80.2892C30.7346 77.8317 33.032 75.4982 35.1056 73.2718L34.3738 72.5902C32.3138 74.8021 30.0297 77.1222 27.4791 79.5673L28.1712 80.2892ZM41.5744 65.817C43.8277 63.0118 45.736 60.3805 47.4164 57.8766L46.586 57.3194C44.9206 59.8009 43.0291 62.4092 40.7948 65.1908L41.5744 65.817ZM52.591 49.4953C54.2894 46.5474 55.8156 43.7591 57.4606 40.969L56.5992 40.4611C54.9553 43.2494 53.4043 46.0805 51.7245 48.9961L52.591 49.4953ZM62.8032 32.7875C64.5806 30.3742 66.6162 27.9031 69.0693 25.3107L68.3429 24.6234C65.8609 27.2464 63.799 29.7491 61.998 32.1945L62.8032 32.7875ZM76.1147 18.5826C78.3657 16.6199 80.8803 14.5734 83.7111 12.4224L83.1061 11.6262C80.2592 13.7894 77.7271 15.85 75.4575 17.8289L76.1147 18.5826ZM91.6723 6.68117C92.9854 5.77806 94.352 4.85682 95.7753 3.91627L95.2239 3.08199C93.7958 4.02579 92.424 4.95048 91.1056 5.85725L91.6723 6.68117ZM0.89897 101.25C0.459025 101.584 0.373029 102.211 0.706895 102.651C1.04076 103.091 1.66806 103.177 2.108 102.844L0.89897 101.25ZM96.4794 3.6992C96.5899 3.15809 96.2408 2.62985 95.6997 2.51935L86.8817 0.718672C86.3405 0.608173 85.8123 0.957258 85.7018 1.49838C85.5913 2.0395 85.9404 2.56773 86.4815 2.67823L94.3198 4.27883L92.7191 12.1171C92.6087 12.6582 92.9577 13.1864 93.4989 13.2969C94.04 13.4074 94.5682 13.0583 94.6787 12.5172L96.4794 3.6992ZM6.07445 99.7978C6.5105 99.4588 6.58923 98.8306 6.25029 98.3945C5.91136 97.9585 5.28311 97.8797 4.84706 98.2187L6.07445 99.7978ZM12.4677 92.1368C12.0409 92.4872 11.9789 93.1173 12.3293 93.5442C12.6798 93.9711 13.3099 94.0331 13.7368 93.6826L12.4677 92.1368ZM21.2831 87.2798C21.6979 86.9151 21.7385 86.2832 21.3738 85.8685C21.0091 85.4537 20.3773 85.4131 19.9625 85.7777L21.2831 87.2798ZM27.1331 79.2064C26.7344 79.5886 26.7211 80.2216 27.1033 80.6203C27.4855 81.019 28.1185 81.0323 28.5172 80.6501L27.1331 79.2064ZM35.4715 73.6125C35.8479 73.2084 35.8254 72.5756 35.4212 72.1992C35.0171 71.8228 34.3843 71.8453 34.0079 72.2494L35.4715 73.6125ZM40.405 64.8777C40.0591 65.3083 40.1278 65.9377 40.5584 66.2836C40.989 66.6294 41.6184 66.5607 41.9642 66.1302L40.405 64.8777ZM47.8315 58.1553C48.1393 57.6967 48.017 57.0754 47.5585 56.7677C47.0999 56.4599 46.4786 56.5822 46.1709 57.0407L47.8315 58.1553ZM51.2913 48.7465C51.0156 49.225 51.18 49.8365 51.6586 50.1122C52.1371 50.3879 52.7486 50.2234 53.0243 49.7449L51.2913 48.7465ZM57.8913 41.2229C58.1718 40.7472 58.0135 40.1341 57.5378 39.8536C57.062 39.5731 56.4489 39.7314 56.1685 40.2072L57.8913 41.2229ZM61.5954 31.8979C61.2679 32.3426 61.3629 32.9686 61.8076 33.2961C62.2522 33.6237 62.8782 33.5287 63.2058 33.084L61.5954 31.8979ZM69.4324 25.6543C69.812 25.2532 69.7945 24.6202 69.3934 24.2407C68.9922 23.8611 68.3593 23.8786 67.9797 24.2797L69.4324 25.6543ZM75.1289 17.452C74.7127 17.815 74.6694 18.4466 75.0324 18.8629C75.3954 19.2792 76.027 19.3224 76.4433 18.9595L75.1289 17.452ZM84.0136 12.8205C84.4534 12.4864 84.539 11.859 84.2049 11.4193C83.8707 10.9796 83.2434 10.8939 82.8036 11.2281L84.0136 12.8205ZM90.8223 5.44528C90.3672 5.75826 90.2521 6.38086 90.565 6.83591C90.878 7.29095 91.5006 7.40611 91.9557 7.09314L90.8223 5.44528ZM2.108 102.844C3.46821 101.811 4.78989 100.796 6.07445 99.7978L4.84706 98.2187C3.56876 99.2123 2.2532 100.223 0.89897 101.25L2.108 102.844ZM13.7368 93.6826C16.4405 91.4631 18.9497 89.3313 21.2831 87.2798L19.9625 85.7777C17.6471 87.8135 15.1551 89.9307 12.4677 92.1368L13.7368 93.6826ZM28.5172 80.6501C31.087 78.1865 33.3911 75.8462 35.4715 73.6125L34.0079 72.2494C31.9547 74.454 29.6773 76.7674 27.1331 79.2064L28.5172 80.6501ZM41.9642 66.1302C44.227 63.3132 46.1437 60.6702 47.8315 58.1553L46.1709 57.0407C44.5129 59.5112 42.6298 62.1079 40.405 64.8777L41.9642 66.1302ZM53.0243 49.7449C54.7319 46.7808 56.2458 44.014 57.8913 41.2229L56.1685 40.2072C54.5251 42.9946 52.9617 45.847 51.2913 48.7465L53.0243 49.7449ZM63.2058 33.084C64.9714 30.6868 66.9939 28.2315 69.4324 25.6543L67.9797 24.2797C65.4832 26.9181 63.4083 29.4366 61.5954 31.8979L63.2058 33.084ZM76.4433 18.9595C78.6851 17.0048 81.1908 14.9654 84.0136 12.8205L82.8036 11.2281C79.9486 13.3974 77.4077 15.4651 75.1289 17.452L76.4433 18.9595ZM91.9557 7.09314C93.2661 6.19185 94.6301 5.27234 96.0509 4.33341L94.9483 2.66484C93.5176 3.61027 92.1433 4.53668 90.8223 5.44528L91.9557 7.09314Z" fill="#121F26" fill-opacity="0.32"/>
</svg>
