<svg width="162" height="47" viewBox="0 0 162 47" fill="none" xmlns="http://www.w3.org/2000/svg">
<path d="M155.127 46.8848H5.96643C2.68639 46.8848 0 44.2655 0 41.0675V6.16385C0 2.96581 2.68639 0.34658 5.96643 0.34658H155.127C158.407 0.34658 161.094 2.96581 161.094 6.16385V41.0675C161.094 44.2655 158.407 46.8848 155.127 46.8848Z" fill="#121F26"/>
<path d="M155.127 1.2788C157.89 1.2788 160.138 3.47045 160.138 6.16385V41.0675C160.138 43.7609 157.89 45.9525 155.127 45.9525H5.96643C3.20397 45.9525 0.956121 43.7609 0.956121 41.0675V6.16385C0.956121 3.47045 3.20397 1.2788 5.96643 1.2788H155.127ZM155.127 0.34658H5.96643C2.68639 0.34658 0 2.96581 0 6.16385V41.0675C0 44.2655 2.68639 46.8848 5.96643 46.8848H155.127C158.407 46.8848 161.094 44.2655 161.094 41.0675V6.16385C161.094 2.96581 158.407 0.34658 155.127 0.34658Z" fill="#E4F9FF"/>
<path d="M12.4526 9.12257C12.102 9.48034 11.8992 10.0373 11.8992 10.7587V36.4885C11.8992 37.2098 12.102 37.7668 12.4526 38.1246L12.5391 38.2031L27.3269 23.7908V23.4505L12.5391 9.03822L12.4526 9.12257Z" fill="url(#paint0_linear_30_140)"/>
<path d="M32.2473 28.5918L27.3235 23.7853V23.445L32.2533 18.6384L32.3636 18.701L38.2018 21.9397C39.8679 22.8589 39.8679 24.3714 38.2018 25.2963L32.3636 28.5293L32.2473 28.5918Z" fill="url(#paint1_linear_30_140)"/>
<path d="M32.3626 28.5292L27.3224 23.6151L12.4481 38.119C13.0015 38.6862 13.9039 38.7545 14.9302 38.1873L32.3626 28.5292Z" fill="url(#paint2_linear_30_140)"/>
<path d="M32.3625 18.6991L14.93 9.04101C13.9038 8.47965 13.0014 8.548 12.448 9.11518L27.3223 23.6133L32.3625 18.6991Z" fill="url(#paint3_linear_30_140)"/>
<path d="M56.582 12.267C56.582 13.2384 56.2837 14.0165 55.696 14.5968C55.0203 15.2847 54.1403 15.6308 53.0618 15.6308C52.0311 15.6308 51.1511 15.2789 50.4291 14.5851C49.7057 13.8813 49.3447 13.0174 49.3447 11.9834C49.3447 10.9493 49.7057 10.0855 50.4291 9.38741C51.1511 8.68788 52.0311 8.33594 53.0618 8.33594C53.5749 8.33594 54.0642 8.43919 54.531 8.63116C54.9964 8.82459 55.3753 9.08637 55.6498 9.40922L55.0263 10.0229C54.5475 9.47176 53.8956 9.1998 53.0618 9.1998C52.31 9.1998 51.6582 9.45576 51.1048 9.97205C50.5574 10.4898 50.2829 11.1602 50.2829 11.9834C50.2829 12.8065 50.5574 13.4828 51.1048 14.0005C51.6582 14.511 52.31 14.7727 53.0618 14.7727C53.8598 14.7727 54.5311 14.511 55.0606 13.9947C55.4096 13.6529 55.608 13.1817 55.6602 12.5796H53.0618V11.739H56.5283C56.5701 11.9208 56.582 12.0968 56.582 12.267Z" fill="white" stroke="white" stroke-width="0.16" stroke-miterlimit="10"/>
<path d="M62.0806 9.34878H58.8244V11.5593H61.7599V12.3999H58.8244V14.6105H62.0806V15.4671H57.9026V8.49219H62.0806V9.34878Z" fill="white" stroke="white" stroke-width="0.16" stroke-miterlimit="10"/>
<path d="M65.9625 15.4671H65.0407V9.34878H63.0435V8.49219H67.9613V9.34878H65.9625V15.4671Z" fill="white" stroke="white" stroke-width="0.16" stroke-miterlimit="10"/>
<path d="M71.5188 15.4671V8.49219H72.4391V15.4671H71.5188Z" fill="white" stroke="white" stroke-width="0.16" stroke-miterlimit="10"/>
<path d="M76.5196 15.4671H75.6053V9.34878H73.6006V8.49219H78.5244V9.34878H76.5196V15.4671Z" fill="white" stroke="white" stroke-width="0.16" stroke-miterlimit="10"/>
<path d="M87.836 14.5735C87.1305 15.2789 86.2564 15.6308 85.2137 15.6308C84.1651 15.6308 83.291 15.2789 82.5855 14.5735C81.8815 13.8696 81.5309 13.0058 81.5309 11.9834C81.5309 10.961 81.8815 10.0971 82.5855 9.39323C83.291 8.68788 84.1651 8.33594 85.2137 8.33594C86.2504 8.33594 87.1245 8.68788 87.83 9.39904C88.54 10.1088 88.8906 10.9668 88.8906 11.9834C88.8906 13.0058 88.54 13.8696 87.836 14.5735ZM83.2672 13.9889C83.7982 14.511 84.4441 14.7727 85.2137 14.7727C85.9774 14.7727 86.6293 14.511 87.1543 13.9889C87.6838 13.4668 87.9523 12.7963 87.9523 11.9834C87.9523 11.1704 87.6838 10.5 87.1543 9.97786C86.6293 9.45576 85.9774 9.19399 85.2137 9.19399C84.4441 9.19399 83.7982 9.45576 83.2672 9.97786C82.7377 10.5 82.4692 11.1704 82.4692 11.9834C82.4692 12.7963 82.7377 13.4668 83.2672 13.9889Z" fill="white" stroke="white" stroke-width="0.16" stroke-miterlimit="10"/>
<path d="M90.1846 15.4671V8.49219H91.3033L94.7817 13.9168H94.822L94.7817 12.5759V8.49219H95.702V15.4671H94.7414L91.0989 9.7749H91.0587L91.0989 11.1216V15.4671H90.1846Z" fill="white" stroke="white" stroke-width="0.16" stroke-miterlimit="10"/>
<path d="M81.3037 25.6507C78.5009 25.6507 76.2113 27.7303 76.2113 30.5997C76.2113 33.4458 78.5009 35.5473 81.3037 35.5473C84.1124 35.5473 86.402 33.4458 86.402 30.5997C86.402 27.7303 84.1124 25.6507 81.3037 25.6507ZM81.3037 33.5985C79.7658 33.5985 78.4428 32.3609 78.4428 30.5997C78.4428 28.8153 79.7658 27.5994 81.3037 27.5994C82.8415 27.5994 84.1705 28.8153 84.1705 30.5997C84.1705 32.3609 82.8415 33.5985 81.3037 33.5985ZM70.1927 25.6507C67.384 25.6507 65.1003 27.7303 65.1003 30.5997C65.1003 33.4458 67.384 35.5473 70.1927 35.5473C72.9999 35.5473 75.285 33.4458 75.285 30.5997C75.285 27.7303 72.9999 25.6507 70.1927 25.6507ZM70.1927 33.5985C68.6533 33.5985 67.3258 32.3609 67.3258 30.5997C67.3258 28.8153 68.6533 27.5994 70.1927 27.5994C71.7305 27.5994 73.0536 28.8153 73.0536 30.5997C73.0536 32.3609 71.7305 33.5985 70.1927 33.5985ZM56.9711 27.1675V29.2705H62.1216C61.9709 30.4455 61.5682 31.3094 60.9507 31.9115C60.1989 32.6387 59.028 33.4458 56.9711 33.4458C53.8014 33.4458 51.3193 30.9517 51.3193 27.8612C51.3193 24.7708 53.8014 22.2766 56.9711 22.2766C58.6849 22.2766 59.9319 22.9296 60.8522 23.776L62.3722 22.2941C61.0849 21.0957 59.3725 20.1752 56.9711 20.1752C52.6245 20.1752 48.9716 23.6233 48.9716 27.8612C48.9716 32.0991 52.6245 35.5473 56.9711 35.5473C59.3203 35.5473 61.0849 34.7969 62.4721 33.3891C63.8936 32.0031 64.3366 30.0543 64.3366 28.4808C64.3366 27.9921 64.2948 27.5427 64.2203 27.1675H56.9711ZM111.036 28.7978C110.617 27.6911 109.324 25.6507 106.689 25.6507C104.079 25.6507 101.906 27.6562 101.906 30.5997C101.906 33.3716 104.057 35.5473 106.94 35.5473C109.271 35.5473 110.617 34.1613 111.17 33.3542L109.44 32.23C108.863 33.0531 108.077 33.5985 106.94 33.5985C105.811 33.5985 105.001 33.0939 104.482 32.0991L111.27 29.3606L111.036 28.7978ZM104.115 30.4455C104.057 28.5375 105.635 27.5602 106.765 27.5602C107.651 27.5602 108.403 27.9921 108.654 28.6102L104.115 30.4455ZM98.5974 35.2462H100.829V20.7031H98.5974V35.2462ZM94.9429 26.753H94.8683C94.3672 26.1742 93.411 25.6507 92.1999 25.6507C89.6582 25.6507 87.3342 27.8263 87.3342 30.6157C87.3342 33.3891 89.6582 35.5473 92.1999 35.5473C93.411 35.5473 94.3672 35.0194 94.8683 34.4231H94.9429V35.1328C94.9429 37.0249 93.9063 38.0414 92.2342 38.0414C90.8708 38.0414 90.0251 37.0816 89.6761 36.2745L87.7355 37.0641C88.2948 38.3759 89.776 39.9902 92.2342 39.9902C94.8504 39.9902 97.058 38.4894 97.058 34.8376V25.9517H94.9429V26.753ZM92.3908 33.5985C90.8529 33.5985 89.5657 32.3434 89.5657 30.6157C89.5657 28.872 90.8529 27.5994 92.3908 27.5994C93.9063 27.5994 95.101 28.872 95.101 30.6157C95.101 32.3434 93.9063 33.5985 92.3908 33.5985ZM121.483 20.7031H116.146V35.2462H118.372V29.7358H121.483C123.955 29.7358 126.379 27.9921 126.379 25.2187C126.379 22.4468 123.949 20.7031 121.483 20.7031ZM121.541 27.7129H118.372V22.726H121.541C123.203 22.726 124.152 24.0713 124.152 25.2187C124.152 26.3444 123.203 27.7129 121.541 27.7129ZM135.298 25.623C133.69 25.623 132.018 26.3153 131.331 27.8496L133.306 28.6567C133.731 27.8496 134.512 27.5878 135.339 27.5878C136.493 27.5878 137.664 28.2641 137.682 29.4581V29.6108C137.279 29.3839 136.417 29.0479 135.357 29.0479C133.23 29.0479 131.062 30.1896 131.062 32.3202C131.062 34.2689 132.804 35.524 134.763 35.524C136.26 35.524 137.087 34.8652 137.606 34.0988H137.682V35.223H139.831V29.6442C139.831 27.0657 137.856 25.623 135.298 25.623ZM135.03 33.5927C134.302 33.5927 133.288 33.2407 133.288 32.3609C133.288 31.2352 134.553 30.8033 135.647 30.8033C136.627 30.8033 137.087 31.0142 137.682 31.292C137.507 32.6387 136.319 33.5927 135.03 33.5927ZM147.662 25.9415L145.104 32.246H145.028L142.384 25.9415H139.984L143.957 34.7518L141.69 39.6543H144.015L150.138 25.9415H147.662ZM127.602 35.2462H129.833V20.7031H127.602V35.2462Z" fill="white"/>
<defs>
<linearGradient id="paint0_linear_30_140" x1="26.0139" y1="36.7564" x2="6.49459" y2="16.7366" gradientUnits="userSpaceOnUse">
<stop stop-color="#00A0FF"/>
<stop offset="0.0066" stop-color="#00A1FF"/>
<stop offset="0.2601" stop-color="#00BEFF"/>
<stop offset="0.5122" stop-color="#00D2FF"/>
<stop offset="0.7604" stop-color="#00DFFF"/>
<stop offset="1" stop-color="#00E3FF"/>
</linearGradient>
<linearGradient id="paint1_linear_30_140" x1="40.3714" y1="23.6135" x2="11.4975" y2="23.6135" gradientUnits="userSpaceOnUse">
<stop stop-color="#FFE000"/>
<stop offset="0.4087" stop-color="#FFBD00"/>
<stop offset="0.7754" stop-color="#FFA500"/>
<stop offset="1" stop-color="#FF9C00"/>
</linearGradient>
<linearGradient id="paint2_linear_30_140" x1="29.6219" y1="20.9436" x2="3.15214" y2="-6.20483" gradientUnits="userSpaceOnUse">
<stop stop-color="#FF3A44"/>
<stop offset="1" stop-color="#C31162"/>
</linearGradient>
<linearGradient id="paint3_linear_30_140" x1="8.70382" y1="46.6774" x2="20.5238" y2="34.5545" gradientUnits="userSpaceOnUse">
<stop stop-color="#32A071"/>
<stop offset="0.0685" stop-color="#2DA771"/>
<stop offset="0.4762" stop-color="#15CF74"/>
<stop offset="0.8009" stop-color="#06E775"/>
<stop offset="1" stop-color="#00F076"/>
</linearGradient>
</defs>
</svg>
