<svg width="101" height="25" viewBox="0 0 101 25" fill="none" xmlns="http://www.w3.org/2000/svg">
<path d="M83.6211 17.3939H86.9854V6.14453H83.6211V17.3939Z" fill="#04165D"/>
<path d="M74.9436 14.6617C73.5064 14.6617 72.2368 13.6647 72.2368 11.7562C72.2368 9.94639 73.4655 8.85513 74.9527 8.85513C75.0797 8.85513 75.2066 8.86411 75.3336 8.88207L77.6731 9.05272L77.6595 11.5226C77.6641 11.599 77.6686 11.6798 77.6686 11.7562C77.6686 11.8505 77.6641 11.9403 77.6595 12.0301C77.5371 13.5435 76.4036 14.6617 74.9436 14.6617ZM74.123 17.7469C75.7824 17.7469 77.12 17.0957 77.8091 15.955V17.3921H81.0147V6.1427H78.9109C77.4101 6.07983 76.0409 5.90918 74.5628 5.80589L74.4948 5.8014C74.3633 5.79242 74.2318 5.78793 74.1003 5.78793C71.1124 5.78793 68.8952 8.48689 68.8952 11.7562C68.8952 15.0524 71.0761 17.7469 74.123 17.7469ZM65.4176 17.3921H67.9295V14.6348H66.1431C65.4358 14.6348 64.8645 14.2575 64.8645 13.1618V8.98985H67.934V6.1427H64.8645V2.19531L61.4957 2.21328V6.1427H59.3148L60.4075 8.98985H61.4957V13.0091C61.4912 16.8981 63.7446 17.3921 65.4176 17.3921ZM51.2216 17.3921H47.8755V6.1427H49.9793C51.1989 6.0933 52.3823 5.88673 53.5974 5.8014C57.0252 5.57686 59.197 8.58568 59.197 11.7607C59.197 13.6333 59.2015 15.5015 59.2015 17.3741H55.8554V11.7607C55.9234 9.63652 54.5723 8.62161 52.7586 8.88656L51.2125 9.05721C51.2216 11.8325 51.2216 14.6123 51.2216 17.3921ZM42.1399 6.1427H45.4861V17.3921H43.3823C42.1626 17.4415 40.9792 17.6481 39.7641 17.7334C36.3364 17.9579 34.1646 14.9491 34.1646 11.7741C34.1646 9.90148 34.1601 8.03332 34.1601 6.16067H37.5062V11.7741C37.4382 13.8983 38.7893 14.9132 40.6029 14.6482L42.149 14.4776C42.1399 11.7023 42.1399 8.92249 42.1399 6.1427ZM26.8829 14.6617C25.2915 14.6617 24.1671 13.4806 24.1671 11.7696C24.1671 10.0676 25.2915 8.87758 26.8829 8.87758C28.4744 8.87758 29.5988 10.0721 29.5988 11.7696C29.5988 13.4806 28.4698 14.6617 26.8829 14.6617ZM26.8467 17.7469C30.4512 17.7469 32.9404 15.0748 32.9404 11.7696C32.9404 8.48689 30.4512 5.79242 26.8557 5.79242C23.2829 5.79242 20.8164 8.49587 20.8164 11.7696C20.8209 15.0614 23.2965 17.7469 26.8467 17.7469Z" fill="#04165D"/>
<path d="M0 17.3935H3.57281L5.52245 7.81464L8.91843 15.0358H10.8182L14.255 7.84607L16.2545 17.3979H19.8092L16.191 2.20566C15.3885 2.20566 14.5814 2.20566 13.7789 2.20566C13.0852 2.20566 12.7724 2.88826 12.7724 2.88826L9.87058 9.22025V9.22923C8.92297 7.11408 7.97536 5.00341 7.02774 2.88826C7.02321 2.87928 6.71943 2.20117 6.03026 2.20117H3.57281L0 17.3935Z" fill="#04165D"/>
<path d="M93.0199 17.3935H89.6738V6.14414H91.7776C92.9973 6.09474 94.1807 5.88817 95.3958 5.80284C98.8235 5.5783 100.995 8.58712 100.995 11.7621C100.995 13.6347 101 15.5029 101 17.3756H97.6537V11.7621C97.7217 9.63796 96.3706 8.62305 94.557 8.888L93.0109 9.05865C93.0245 11.8339 93.0199 14.6137 93.0199 17.3935Z" fill="#04165D"/>
<path fill-rule="evenodd" clip-rule="evenodd" d="M85.1443 0C85.0446 0 84.9403 0.0853248 84.8904 0.251483C84.7272 0.817321 84.4098 1.29334 83.9745 1.63464C83.7388 1.77835 83.4758 1.88163 83.1811 1.949C82.841 2.0433 82.8456 2.34867 83.1811 2.44298C83.6073 2.56423 83.9836 2.77081 84.2919 3.04923C84.5639 3.35012 84.768 3.71836 84.8904 4.136C84.9403 4.30665 85.04 4.38749 85.1443 4.38749C85.244 4.38749 85.3483 4.30216 85.3982 4.136C85.5206 3.71836 85.7247 3.35012 85.9967 3.04923C86.3005 2.7753 86.6768 2.56423 87.1075 2.44298C87.443 2.34867 87.4476 2.0433 87.1075 1.949C86.8128 1.88163 86.5498 1.77386 86.3141 1.63464C85.8788 1.29783 85.5614 0.821812 85.3982 0.251483C85.3483 0.0853248 85.2486 0 85.1443 0Z" fill="#FDC600"/>
<path d="M29.1679 21.2891H29.653C29.7437 21.2891 29.7891 21.334 29.7891 21.4283V24.7964C29.7891 24.8907 29.7437 24.9356 29.653 24.9356H29.1679C29.0727 24.9356 29.0273 24.8907 29.0273 24.7964V21.4283C29.0273 21.334 29.0727 21.2891 29.1679 21.2891Z" fill="#04165D"/>
<path d="M31.7148 21.4302C31.7148 21.3359 31.7602 21.291 31.8554 21.291H34.6302C34.7254 21.291 34.7708 21.3359 34.7708 21.4302V21.8658C34.7708 21.9556 34.7254 22.0006 34.6302 22.0006H33.6237V24.8028C33.6237 24.8971 33.5783 24.942 33.4831 24.942H33.0025C32.9073 24.942 32.862 24.8971 32.862 24.8028V22.0006H31.8554C31.7602 22.0006 31.7148 21.9556 31.7148 21.8658V21.4302Z" fill="#04165D"/>
<path d="M39.1372 23.0608L39.1735 23.0383C38.9422 22.7644 38.8244 22.4904 38.8244 22.212C38.8244 21.9156 38.9196 21.6776 39.11 21.498C39.3004 21.3183 39.5543 21.2285 39.8672 21.2285C40.171 21.2285 40.4203 21.3093 40.6062 21.471C40.7921 21.6327 40.8873 21.8438 40.8873 22.1087C40.8873 22.5174 40.6924 22.8317 40.2979 23.0473L40.1619 23.1191L40.5881 23.5637C40.6108 23.4964 40.6244 23.4425 40.6289 23.4065C40.6969 23.1461 40.7967 22.962 40.9281 22.8497C41.0596 22.7374 41.2546 22.6835 41.504 22.6835H41.64C41.7352 22.6835 41.7805 22.7284 41.7805 22.8227V23.1685C41.7805 23.2628 41.7352 23.3077 41.64 23.3077H41.5266C41.3589 23.3077 41.2501 23.402 41.2047 23.5907L41.1821 23.6939C41.1594 23.7972 41.1186 23.9185 41.0687 24.0487L41.7624 24.7628C41.7941 24.7987 41.8077 24.8301 41.8077 24.8571C41.8077 24.866 41.8032 24.8795 41.7941 24.902C41.7851 24.9244 41.7533 24.9379 41.6944 24.9379H41.114C41.046 24.9379 40.9871 24.9154 40.9418 24.866L40.6969 24.619C40.4385 24.866 40.112 24.9918 39.713 24.9918C39.3412 24.9918 39.0511 24.9065 38.8425 24.7403C38.6339 24.5697 38.5342 24.3361 38.5342 24.0308C38.5342 23.6086 38.7337 23.2853 39.1372 23.0608ZM39.237 23.932C39.237 24.0757 39.2868 24.1879 39.382 24.2688C39.4773 24.3496 39.6178 24.3855 39.7946 24.3855C39.9805 24.3855 40.1392 24.3137 40.2707 24.1745L39.5679 23.4514L39.5226 23.4784C39.3322 23.5817 39.237 23.7344 39.237 23.932ZM39.6994 22.6476L39.7674 22.715L39.9035 22.6431C40.1483 22.5084 40.2707 22.3467 40.2707 22.1626C40.2707 22.0548 40.2344 21.9695 40.1619 21.9021C40.0894 21.8348 39.9941 21.8033 39.8763 21.8033C39.7584 21.8033 39.6632 21.8393 39.5906 21.9156C39.5181 21.9919 39.4818 22.0907 39.4818 22.2165C39.4863 22.3512 39.5589 22.4994 39.6994 22.6476Z" fill="#04165D"/>
<path d="M45.6572 21.4302C45.6572 21.3359 45.7026 21.291 45.7978 21.291H47.0174C47.5751 21.291 48.0195 21.4572 48.3595 21.794C48.6996 22.1263 48.8673 22.5664 48.8673 23.1098C48.8673 23.6621 48.6905 24.1022 48.3414 24.439C47.9923 24.7759 47.5388 24.9375 46.963 24.9375H45.7978C45.7026 24.9375 45.6572 24.8926 45.6572 24.7983V21.4302ZM46.4189 21.9961V24.228H46.9449C47.2804 24.228 47.5479 24.1247 47.7519 23.9181C47.956 23.7115 48.0603 23.4421 48.0603 23.1053C48.0603 22.773 47.9605 22.508 47.7565 22.3014C47.5525 22.0949 47.2849 21.9961 46.9494 21.9961H46.4189Z" fill="#04165D"/>
<path d="M51.0038 21.2891H53.23C53.3207 21.2891 53.3661 21.334 53.3661 21.4283V21.8639C53.3661 21.9537 53.3207 21.9986 53.23 21.9986H51.625V22.78H52.9625C53.0577 22.78 53.1031 22.8249 53.1031 22.9192V23.3144C53.1031 23.4042 53.0577 23.4491 52.9625 23.4491H51.625V24.235H53.2935C53.3887 24.235 53.4341 24.2799 53.4341 24.3742V24.8053C53.4341 24.8996 53.3887 24.9446 53.2935 24.9446H51.0038C50.9086 24.9446 50.8633 24.8996 50.8633 24.8053V21.4373C50.8633 21.334 50.9132 21.2891 51.0038 21.2891Z" fill="#04165D"/>
<path d="M55.3021 23.8183L55.7374 23.751C55.7464 23.7465 55.76 23.7465 55.7691 23.7465C55.8281 23.7465 55.8734 23.7869 55.9006 23.8632C55.9414 24.0114 56.0321 24.1282 56.1726 24.2135C56.3132 24.2988 56.481 24.3437 56.685 24.3437C56.8754 24.3437 57.0296 24.3033 57.1429 24.2225C57.2563 24.1417 57.3107 24.0339 57.3107 23.9036C57.3107 23.7105 57.1837 23.5848 56.9298 23.5309L56.1772 23.3603C55.8825 23.2929 55.6558 23.1672 55.4971 22.9875C55.3384 22.8079 55.2613 22.5878 55.2613 22.3274C55.2613 21.9951 55.3883 21.7301 55.6467 21.528C55.9051 21.3259 56.2361 21.2227 56.6487 21.2227C56.9752 21.2227 57.2517 21.299 57.4784 21.4472C57.7051 21.5954 57.8638 21.793 57.9545 22.04C57.9636 22.0624 57.9636 22.0804 57.9636 22.1028C57.9636 22.1567 57.9273 22.1972 57.8593 22.2151L57.4422 22.3409C57.424 22.3498 57.4104 22.3498 57.3968 22.3498C57.3424 22.3498 57.3016 22.3139 57.2789 22.2466C57.2291 22.1343 57.1475 22.0445 57.0341 21.9771C56.9208 21.9097 56.7847 21.8783 56.6306 21.8783C56.4583 21.8783 56.3177 21.9187 56.2089 21.9996C56.1001 22.0804 56.0457 22.1837 56.0457 22.3139C56.0457 22.498 56.1772 22.6238 56.4356 22.6866L57.1837 22.8663C57.4784 22.9381 57.7051 23.0639 57.8593 23.248C58.0135 23.4276 58.0905 23.6432 58.0905 23.8947C58.0905 24.227 57.9591 24.4964 57.6961 24.6985C57.4331 24.9006 57.0885 24.9994 56.6623 24.9994C56.2588 24.9994 55.9278 24.9051 55.6648 24.7165C55.4019 24.5279 55.2432 24.2809 55.1842 23.9755C55.1797 23.962 55.1797 23.9486 55.1797 23.9351C55.1797 23.8722 55.2205 23.8318 55.3021 23.8183Z" fill="#04165D"/>
<path d="M60.2128 21.2891H60.698C60.7886 21.2891 60.834 21.334 60.834 21.4283V24.7964C60.834 24.8907 60.7886 24.9356 60.698 24.9356H60.2128C60.1176 24.9356 60.0723 24.8907 60.0723 24.7964V21.4283C60.0723 21.334 60.1176 21.2891 60.2128 21.2891Z" fill="#04165D"/>
<path d="M63.3315 21.7475C63.667 21.4017 64.1068 21.2266 64.6554 21.2266C65.0453 21.2266 65.3854 21.3164 65.6801 21.5005C65.9703 21.6846 66.1743 21.9271 66.2831 22.228C66.2922 22.2505 66.2922 22.2684 66.2922 22.2864C66.2922 22.3403 66.2605 22.3807 66.1925 22.4031L65.7527 22.5558C65.73 22.5648 65.7118 22.5648 65.6937 22.5648C65.6438 22.5648 65.603 22.5334 65.5758 22.475C65.4988 22.3178 65.3809 22.1921 65.2222 22.0933C65.0635 21.999 64.8821 21.9496 64.6872 21.9496C64.3743 21.9496 64.1204 22.0529 63.9254 22.2639C63.7305 22.475 63.6353 22.7534 63.6353 23.0947C63.6353 23.445 63.735 23.7234 63.9345 23.9345C64.134 24.1456 64.3924 24.2533 64.7098 24.2533C64.9683 24.2533 65.1768 24.1815 65.3446 24.0378C65.5078 23.8941 65.603 23.701 65.6166 23.463H64.7234C64.6282 23.463 64.5829 23.4181 64.5829 23.3238V22.9735C64.5829 22.8837 64.6282 22.8388 64.7234 22.8388H66.2514C66.3466 22.8388 66.3919 22.8837 66.3919 22.9735V24.7877C66.3919 24.8821 66.3466 24.927 66.2514 24.927H65.9884C65.9068 24.927 65.8569 24.891 65.8343 24.8192L65.6937 24.4509C65.4534 24.8102 65.0726 24.9898 64.5466 24.9898C64.0343 24.9898 63.6217 24.8192 63.3043 24.4689C62.9869 24.1231 62.8282 23.6695 62.8282 23.1127C62.8237 22.5558 62.996 22.0978 63.3315 21.7475Z" fill="#04165D"/>
<path d="M68.6406 21.2891H69.2844C69.3524 21.2891 69.4113 21.3205 69.4521 21.3879L70.8668 23.7904V21.4283C70.8668 21.334 70.9121 21.2891 71.0073 21.2891H71.4925C71.5831 21.2891 71.6285 21.334 71.6285 21.4283V24.7964C71.6285 24.8907 71.5831 24.9356 71.4925 24.9356H70.8486C70.7715 24.9356 70.7171 24.9041 70.6809 24.8413L69.2617 22.4342V24.7964C69.2617 24.8907 69.2164 24.9356 69.1257 24.9356H68.6406C68.5453 24.9356 68.5 24.8907 68.5 24.7964V21.4283C68.5 21.334 68.5499 21.2891 68.6406 21.2891Z" fill="#04165D"/>
</svg>
