<svg width="158" height="146" viewBox="0 0 158 146" fill="none" xmlns="http://www.w3.org/2000/svg">
<path d="M157.019 2.08332C157.066 1.81121 156.883 1.55253 156.611 1.50555C156.339 1.45856 156.081 1.64107 156.034 1.91319L157.019 2.08332ZM1.19624 137.102C0.976941 137.27 0.935206 137.584 1.10303 137.803L3.83782 141.377C4.00564 141.596 4.31946 141.638 4.53875 141.47C4.75805 141.302 4.79979 140.988 4.63196 140.769L2.20103 137.593L5.37761 135.162C5.59691 134.994 5.63863 134.68 5.47083 134.461C5.303 134.241 4.98918 134.2 4.76988 134.368L1.19624 137.102ZM155.065 6.96166C155.008 7.23188 155.181 7.49704 155.451 7.5539C155.722 7.61076 155.987 7.4378 156.044 7.16758L155.065 6.96166ZM153.586 17.214C153.66 16.9479 153.504 16.6723 153.238 16.5985C152.972 16.5246 152.697 16.6805 152.623 16.9466L153.586 17.214ZM149.59 26.7834C149.501 27.045 149.642 27.3288 149.903 27.4174C150.165 27.5059 150.448 27.3657 150.537 27.1041L149.59 26.7834ZM146.956 36.8327C147.058 36.5761 146.933 36.2854 146.676 36.1834C146.419 36.0814 146.129 36.2067 146.027 36.4633L146.956 36.8327ZM141.984 45.9303C141.87 46.1815 141.98 46.4781 142.231 46.5929C142.483 46.7076 142.779 46.597 142.894 46.3458L141.984 45.9303ZM138.358 55.6564C138.485 55.4112 138.389 55.1094 138.144 54.9824C137.899 54.8553 137.597 54.951 137.47 55.1961L138.358 55.6564ZM132.501 64.2177C132.362 64.4562 132.442 64.7624 132.681 64.9017C132.919 65.041 133.225 64.9607 133.364 64.7223L132.501 64.2177ZM127.909 73.5253C128.06 73.2945 127.996 72.9845 127.765 72.8329C127.534 72.6813 127.224 72.7455 127.073 72.9763L127.909 73.5253ZM121.188 81.4259C121.024 81.6481 121.071 81.9611 121.293 82.1251C121.516 82.2892 121.829 82.242 121.993 82.0199L121.188 81.4259ZM115.603 90.173C115.779 89.9608 115.751 89.6455 115.538 89.4688C115.326 89.2922 115.011 89.3211 114.834 89.5333L115.603 90.173ZM108.011 97.2394C107.821 97.4403 107.831 97.7567 108.032 97.9462C108.232 98.1356 108.549 98.1263 108.738 97.9254L108.011 97.2394ZM101.387 105.225C101.59 105.038 101.601 104.721 101.413 104.519C101.225 104.316 100.909 104.305 100.707 104.493L101.387 105.225ZM92.925 111.223C92.7098 111.396 92.6755 111.711 92.8485 111.926C93.0215 112.141 93.3362 112.175 93.5515 112.002L92.925 111.223ZM85.2349 118.185C85.4628 118.029 85.5209 117.717 85.3648 117.49C85.2088 117.262 84.8976 117.204 84.6698 117.36L85.2349 118.185ZM75.9593 122.826C75.7196 122.963 75.6364 123.269 75.7734 123.508C75.9105 123.748 76.216 123.831 76.4557 123.694L75.9593 122.826ZM67.2492 128.452C67.4998 128.335 67.6088 128.038 67.4927 127.788C67.3767 127.537 67.0794 127.428 66.8289 127.544L67.2492 128.452ZM57.3143 131.45C57.0544 131.544 56.9194 131.83 57.0127 132.09C57.1061 132.35 57.3924 132.485 57.6523 132.391L57.3143 131.45ZM47.7549 135.448C48.0222 135.378 48.1826 135.106 48.1132 134.838C48.0438 134.571 47.7709 134.411 47.5036 134.48L47.7549 135.448ZM37.4519 136.607C37.1794 136.652 36.9948 136.909 37.0397 137.181C37.0845 137.454 37.3418 137.638 37.6142 137.594L37.4519 136.607ZM27.3039 138.818C27.5793 138.797 27.7861 138.558 27.7658 138.282C27.7454 138.007 27.5057 137.8 27.2303 137.821L27.3039 138.818ZM16.9687 138.133C16.6926 138.13 16.466 138.351 16.4627 138.627C16.4593 138.903 16.6805 139.129 16.9566 139.133L16.9687 138.133ZM6.62124 138.583C6.89618 138.609 7.13992 138.407 7.16566 138.132C7.19138 137.857 6.98935 137.613 6.71441 137.587L6.62124 138.583ZM156.034 1.91319C155.749 3.56266 155.426 5.24678 155.065 6.96166L156.044 7.16758C156.407 5.44122 156.732 3.74517 157.019 2.08332L156.034 1.91319ZM152.623 16.9466C151.731 20.16 150.72 23.4462 149.59 26.7834L150.537 27.1041C151.673 23.7497 152.689 20.4457 153.586 17.214L152.623 16.9466ZM146.027 36.4633C144.78 39.5991 143.432 42.7604 141.984 45.9303L142.894 46.3458C144.349 43.1606 145.703 39.984 146.956 36.8327L146.027 36.4633ZM137.47 55.1961C135.905 58.2152 134.249 61.2273 132.501 64.2177L133.364 64.7223C135.121 61.7169 136.785 58.6901 138.358 55.6564L137.47 55.1961ZM127.073 72.9763C125.198 75.8313 123.236 78.6522 121.188 81.4259L121.993 82.0199C124.052 79.2311 126.024 76.3951 127.909 73.5253L127.073 72.9763ZM114.834 89.5333C112.644 92.1653 110.369 94.7382 108.011 97.2394L108.738 97.9254C111.112 95.4087 113.4 92.8203 115.603 90.173L114.834 89.5333ZM100.707 104.493C98.1958 106.824 95.6019 109.071 92.925 111.223L93.5515 112.002C96.2476 109.835 98.8595 107.572 101.387 105.225L100.707 104.493ZM84.6698 117.36C81.8481 119.293 78.9446 121.119 75.9593 122.826L76.4557 123.694C79.4652 121.973 82.3916 120.133 85.2349 118.185L84.6698 117.36ZM66.8289 127.544C63.7364 128.977 60.5649 130.283 57.3143 131.45L57.6523 132.391C60.9315 131.214 64.1305 129.896 67.2492 128.452L66.8289 127.544ZM47.5036 134.48C44.2265 135.331 40.876 136.043 37.4519 136.607L37.6142 137.594C41.0685 137.025 44.4488 136.306 47.7549 135.448L47.5036 134.48ZM27.2303 137.821C23.8752 138.068 20.4546 138.175 16.9687 138.133L16.9566 139.133C20.4709 139.175 23.9201 139.068 27.3039 138.818L27.2303 137.821ZM6.71441 137.587C5.01285 137.428 3.29671 137.234 1.56601 137.004L1.4342 137.995C3.17764 138.227 4.90667 138.423 6.62124 138.583L6.71441 137.587ZM157.512 2.16839C157.606 1.62416 157.241 1.1068 156.696 1.01284C156.152 0.918871 155.635 1.28389 155.541 1.82812L157.512 2.16839ZM0.892369 136.705C0.453781 137.041 0.370325 137.669 0.705956 138.107L6.17553 145.254C6.51116 145.693 7.13881 145.776 7.57739 145.441C8.016 145.105 8.09945 144.478 7.76381 144.039L2.90198 137.686L9.25512 132.824C9.69371 132.488 9.77718 131.861 9.44154 131.422C9.10589 130.984 8.47826 130.9 8.03966 131.236L0.892369 136.705ZM154.576 6.85871C154.462 7.39916 154.808 7.92947 155.349 8.04319C155.889 8.15691 156.419 7.81098 156.533 7.27053L154.576 6.85871ZM154.068 17.3477C154.216 16.8155 153.904 16.2644 153.372 16.1167C152.84 15.969 152.289 16.2807 152.141 16.8129L154.068 17.3477ZM149.116 26.623C148.939 27.1461 149.22 27.7138 149.743 27.8909C150.266 28.0681 150.833 27.7876 151.011 27.2645L149.116 26.623ZM147.421 37.0175C147.625 36.5043 147.374 35.9228 146.861 35.7188C146.348 35.5147 145.766 35.7653 145.562 36.2785L147.421 37.0175ZM141.53 45.7226C141.3 46.2249 141.521 46.8182 142.024 47.0477C142.526 47.2771 143.119 47.0559 143.349 46.5536L141.53 45.7226ZM138.802 55.8865C139.056 55.3962 138.865 54.7926 138.374 54.5385C137.884 54.2843 137.28 54.4757 137.026 54.966L138.802 55.8865ZM132.069 63.9655C131.791 64.4423 131.951 65.0548 132.428 65.3334C132.905 65.612 133.518 65.4514 133.796 64.9745L132.069 63.9655ZM128.327 73.7998C128.63 73.3382 128.501 72.7182 128.04 72.415C127.578 72.1118 126.958 72.2402 126.655 72.7018L128.327 73.7998ZM120.786 81.1289C120.458 81.5732 120.552 82.1993 120.996 82.5274C121.441 82.8554 122.067 82.7612 122.395 82.3169L120.786 81.1289ZM115.987 90.4929C116.34 90.0683 116.283 89.4378 115.858 89.0845C115.434 88.7312 114.803 88.789 114.45 89.2135L115.987 90.4929ZM107.647 96.8963C107.268 97.2981 107.287 97.931 107.688 98.3099C108.09 98.6888 108.723 98.6703 109.102 98.2685L107.647 96.8963ZM101.727 105.592C102.132 105.216 102.156 104.583 101.78 104.179C101.404 103.774 100.771 103.75 100.367 104.126L101.727 105.592ZM92.6118 110.833C92.1813 111.179 92.1128 111.809 92.4588 112.239C92.8048 112.67 93.4342 112.738 93.8647 112.392L92.6118 110.833ZM85.5175 118.597C85.9732 118.285 86.0895 117.663 85.7773 117.207C85.4652 116.751 84.8428 116.635 84.3872 116.947L85.5175 118.597ZM75.7111 122.392C75.2317 122.666 75.0652 123.277 75.3394 123.756C75.6135 124.236 76.2244 124.402 76.7039 124.128L75.7111 122.392ZM67.4594 128.905C67.9605 128.673 68.1786 128.079 67.9464 127.577C67.7143 127.076 67.1198 126.858 66.6187 127.09L67.4594 128.905ZM57.1453 130.98C56.6255 131.166 56.3555 131.739 56.5422 132.259C56.7289 132.779 57.3016 133.049 57.8213 132.862L57.1453 130.98ZM47.8806 135.932C48.4152 135.793 48.736 135.247 48.5972 134.713C48.4584 134.178 47.9125 133.857 47.3779 133.996L47.8806 135.932ZM37.3707 136.114C36.8257 136.203 36.4566 136.718 36.5463 137.263C36.636 137.808 37.1505 138.177 37.6954 138.087L37.3707 136.114ZM27.3407 139.316C27.8915 139.276 28.3051 138.796 28.2644 138.246C28.2238 137.695 27.7443 137.281 27.1935 137.322L27.3407 139.316ZM16.9748 137.633C16.4225 137.626 15.9694 138.069 15.9627 138.621C15.956 139.173 16.3983 139.626 16.9505 139.633L16.9748 137.633ZM6.57466 139.081C7.12454 139.132 7.61202 138.728 7.66347 138.178C7.71494 137.628 7.31089 137.141 6.76099 137.09L6.57466 139.081ZM155.541 1.82812C155.257 3.47141 154.935 5.14957 154.576 6.85871L156.533 7.27053C156.897 5.53843 157.224 3.83641 157.512 2.16839L155.541 1.82812ZM152.141 16.8129C151.252 20.0172 150.244 23.2944 149.116 26.623L151.011 27.2645C152.15 23.9014 153.169 20.5886 154.068 17.3477L152.141 16.8129ZM145.562 36.2785C144.318 39.4067 142.974 42.5603 141.53 45.7226L143.349 46.5536C144.807 43.3608 146.164 40.1765 147.421 37.0175L145.562 36.2785ZM137.026 54.966C135.465 57.9778 133.813 60.9824 132.069 63.9655L133.796 64.9745C135.557 61.9618 137.225 58.9276 138.802 55.8865L137.026 54.966ZM126.655 72.7018C124.785 75.5494 122.828 78.3628 120.786 81.1289L122.395 82.3169C124.46 79.5205 126.437 76.677 128.327 73.7998L126.655 72.7018ZM114.45 89.2135C112.266 91.8378 109.998 94.403 107.647 96.8963L109.102 98.2685C111.483 95.744 113.778 93.1478 115.987 90.4929L114.45 89.2135ZM100.367 104.126C97.864 106.45 95.2791 108.689 92.6118 110.833L93.8647 112.392C96.5704 110.217 99.1913 107.946 101.727 105.592L100.367 104.126ZM84.3872 116.947C81.5763 118.873 78.6843 120.692 75.7111 122.392L76.7039 124.128C79.7255 122.4 82.6634 120.553 85.5175 118.597L84.3872 116.947ZM66.6187 127.09C63.5394 128.517 60.3817 129.817 57.1453 130.98L57.8213 132.862C61.1148 131.679 64.3275 130.356 67.4594 128.905L66.6187 127.09ZM47.3779 133.996C44.1154 134.843 40.7797 135.552 37.3707 136.114L37.6954 138.087C41.1648 137.516 44.5599 136.794 47.8806 135.932L47.3779 133.996ZM27.1935 137.322C23.8527 137.568 20.4465 137.675 16.9748 137.633L16.9505 139.633C20.4791 139.676 23.9425 139.567 27.3407 139.316L27.1935 137.322ZM6.76099 137.09C5.06593 136.931 3.35624 136.737 1.63191 136.508L1.36829 138.491C3.11811 138.723 4.85357 138.92 6.57466 139.081L6.76099 137.09Z" fill="#121F26" fill-opacity="0.32"/>
</svg>
