<svg width="16" height="16" viewBox="0 0 16 16" fill="none" xmlns="http://www.w3.org/2000/svg">
<path d="M8 15.5C3.85775 15.5 0.5 12.1423 0.5 8C0.5 3.85775 3.85775 0.5 8 0.5C12.1423 0.5 15.5 3.85775 15.5 8C15.5 12.1423 12.1423 15.5 8 15.5ZM5.6675 8.8775L5.67725 8.87225L6.32975 11.0248C6.41375 11.258 6.52925 11.3 6.6695 11.2805C6.8105 11.2618 6.88475 11.186 6.977 11.0975L7.868 10.2365L9.7805 11.6525C10.13 11.8453 10.3813 11.7455 10.4683 11.3285L11.711 5.462C11.8483 4.916 11.6083 4.697 11.1845 4.871L3.88475 7.691C3.38675 7.8905 3.38975 8.1695 3.79475 8.29325L5.6675 8.87825V8.8775Z" fill="#0C1D32"/>
</svg>
