<svg width="214" height="67" viewBox="0 0 214 67" fill="none" xmlns="http://www.w3.org/2000/svg">
<path d="M213.193 64.6501C213.413 64.817 213.456 65.1307 213.289 65.3506C213.122 65.5706 212.808 65.6136 212.588 65.4467L213.193 64.6501ZM0.682927 8.65889C0.469542 8.48361 0.438662 8.16854 0.613936 7.95516L3.47026 4.47789C3.64553 4.2645 3.9606 4.23361 4.17399 4.40889C4.38737 4.58417 4.41825 4.89924 4.24298 5.11262L1.70403 8.20353L4.79494 10.7425C5.00832 10.9178 5.03922 11.2328 4.86394 11.4462C4.68865 11.6596 4.37358 11.6905 4.16019 11.5152L0.682927 8.65889ZM208.456 62.3377C208.235 62.1726 208.189 61.8593 208.354 61.638C208.519 61.4166 208.833 61.371 209.054 61.5361L208.456 62.3377ZM200.757 55.4657C200.981 55.6266 201.033 55.939 200.872 56.1634C200.711 56.3878 200.398 56.4394 200.174 56.2785L200.757 55.4657ZM191.747 50.3757C191.519 50.2199 191.46 49.9087 191.616 49.6808C191.772 49.4528 192.083 49.3943 192.311 49.5501L191.747 50.3757ZM183.728 43.8431C183.96 43.9929 184.026 44.3024 183.876 44.5344C183.727 44.7664 183.417 44.833 183.185 44.6832L183.728 43.8431ZM174.486 39.2474C174.25 39.1048 174.174 38.7975 174.316 38.561C174.459 38.3246 174.766 38.2486 175.003 38.3913L174.486 39.2474ZM166.076 33.2106C166.317 33.3449 166.404 33.6494 166.269 33.8907C166.135 34.132 165.831 34.2187 165.589 34.0844L166.076 33.2106ZM156.532 29.27C156.285 29.1453 156.187 28.8445 156.311 28.5981C156.436 28.3517 156.737 28.253 156.983 28.3777L156.532 29.27ZM147.678 23.9193C147.93 24.033 148.041 24.3292 147.928 24.5808C147.814 24.8325 147.518 24.9443 147.266 24.8305L147.678 23.9193ZM137.818 20.8252C137.561 20.7236 137.436 20.433 137.537 20.1763C137.639 19.9195 137.929 19.7937 138.186 19.8954L137.818 20.8252ZM128.506 16.3408C128.768 16.4294 128.908 16.7132 128.82 16.9748C128.731 17.2363 128.447 17.3765 128.186 17.2879L128.506 16.3408ZM118.384 14.2459C118.119 14.1709 117.964 13.8946 118.039 13.6289C118.114 13.3631 118.39 13.2085 118.656 13.2835L118.384 14.2459ZM108.662 10.7367C108.931 10.798 109.1 11.066 109.038 11.3353C108.977 11.6045 108.709 11.773 108.44 11.7117L108.662 10.7367ZM98.3789 9.68006C98.107 9.63201 97.9255 9.37262 97.9736 9.10069C98.0216 8.82876 98.281 8.64726 98.5529 8.69531L98.3789 9.68006ZM88.3646 7.13916C88.6385 7.17465 88.8317 7.42542 88.7962 7.69927C88.7608 7.97313 88.51 8.16636 88.2361 8.13087L88.3646 7.13916ZM78.0163 7.02814C77.7412 7.0042 77.5375 6.76177 77.5615 6.48667C77.5854 6.21157 77.8279 6.00796 78.103 6.03191L78.0163 7.02814ZM67.8338 5.33564C68.1096 5.34926 68.3221 5.58388 68.3085 5.85969C68.2949 6.13549 68.0603 6.34804 67.7845 6.33442L67.8338 5.33564ZM57.503 6.00092C57.2269 5.99643 57.0067 5.76896 57.0112 5.49285C57.0157 5.21674 57.2432 4.99656 57.5193 5.00105L57.503 6.00092ZM47.2291 4.98446C47.5053 4.98105 47.7319 5.20213 47.7353 5.47825C47.7387 5.75437 47.5176 5.98098 47.2415 5.98439L47.2291 4.98446ZM36.9689 6.24116C36.693 6.25137 36.461 6.03595 36.4508 5.75999C36.4406 5.48404 36.656 5.25206 36.9319 5.24184L36.9689 6.24116ZM26.621 5.73531C26.8967 5.71928 27.1332 5.92977 27.1492 6.20544C27.1652 6.48112 26.9547 6.71759 26.6791 6.73363L26.621 5.73531ZM16.4384 7.42337C16.163 7.44432 15.9228 7.23808 15.9019 6.96273C15.8809 6.68739 16.0872 6.44719 16.3625 6.42625L16.4384 7.42337ZM6.11186 7.28617C6.38686 7.26107 6.63014 7.46364 6.65525 7.73864C6.68035 8.01364 6.47777 8.25692 6.20277 8.28203L6.11186 7.28617ZM212.588 65.4467C211.202 64.3944 209.825 63.3582 208.456 62.3377L209.054 61.5361C210.425 62.5583 211.804 63.5962 213.193 64.6501L212.588 65.4467ZM200.174 56.2785C197.332 54.2411 194.524 52.274 191.747 50.3757L192.311 49.5501C195.095 51.4529 197.908 53.4243 200.757 55.4657L200.174 56.2785ZM183.185 44.6832C180.259 42.7941 177.362 40.9828 174.486 39.2474L175.003 38.3913C177.888 40.1321 180.794 41.9488 183.728 43.8431L183.185 44.6832ZM165.589 34.0844C162.556 32.3957 159.539 30.7917 156.532 29.27L156.983 28.3777C160.003 29.9056 163.031 31.5158 166.076 33.2106L165.589 34.0844ZM147.266 24.8305C144.119 23.4081 140.973 22.0738 137.818 20.8252L138.186 19.8954C141.356 21.15 144.517 22.4904 147.678 23.9193L147.266 24.8305ZM128.186 17.2879C124.94 16.1884 121.676 15.1753 118.384 14.2459L118.656 13.2835C121.965 14.2176 125.245 15.2358 128.506 16.3408L128.186 17.2879ZM108.44 11.7117C105.126 10.9566 101.776 10.2802 98.3789 9.68006L98.5529 8.69531C101.966 9.2983 105.332 9.97787 108.662 10.7367L108.44 11.7117ZM88.2361 8.13087C84.8837 7.69643 81.4798 7.32961 78.0163 7.02814L78.103 6.03191C81.5799 6.33455 84.9977 6.70285 88.3646 7.13916L88.2361 8.13087ZM67.7845 6.33442C64.4192 6.16828 60.9944 6.05774 57.503 6.00092L57.5193 5.00105C61.0211 5.05804 64.457 5.16893 67.8338 5.33564L67.7845 6.33442ZM47.2415 5.98439C43.8818 6.02588 40.4595 6.11197 36.9689 6.24116L36.9319 5.24184C40.4302 5.11237 43.8608 5.02607 47.2291 4.98446L47.2415 5.98439ZM26.6791 6.73363C23.3295 6.9284 19.9174 7.15871 16.4384 7.42337L16.3625 6.42625C19.8471 6.16117 23.2651 5.93045 26.621 5.73531L26.6791 6.73363ZM6.20277 8.28203C4.50078 8.4374 2.78304 8.60014 1.04909 8.77014L0.951509 7.77491C2.68761 7.6047 4.40758 7.44175 6.11186 7.28617L6.20277 8.28203ZM213.495 64.2518C213.935 64.5856 214.021 65.2129 213.687 65.6529C213.353 66.0928 212.726 66.1788 212.286 65.845L213.495 64.2518ZM0.365557 9.04525C-0.0611997 8.6947 -0.12299 8.06456 0.227575 7.63779L5.94021 0.683245C6.29076 0.256477 6.92091 0.194698 7.34768 0.545255C7.77445 0.895812 7.83622 1.52596 7.48566 1.95272L2.40776 8.13454L8.58959 13.2124C9.01635 13.563 9.07812 14.1931 8.72757 14.6199C8.37702 15.0467 7.74688 15.1085 7.32011 14.7579L0.365557 9.04525ZM208.157 62.7385C207.715 62.4083 207.623 61.7818 207.954 61.3391C208.284 60.8963 208.91 60.8051 209.353 61.1353L208.157 62.7385ZM201.048 55.0593C201.497 55.3811 201.6 56.0058 201.278 56.4547C200.956 56.9036 200.332 57.0066 199.883 56.6849L201.048 55.0593ZM191.465 50.7885C191.009 50.4769 190.892 49.8546 191.203 49.3986C191.515 48.9427 192.137 48.8257 192.593 49.1373L191.465 50.7885ZM183.999 43.423C184.463 43.7226 184.596 44.3416 184.296 44.8056C183.997 45.2696 183.378 45.4028 182.914 45.1032L183.999 43.423ZM174.228 39.6755C173.755 39.3902 173.603 38.7756 173.888 38.3027C174.174 37.8298 174.788 37.6778 175.261 37.9632L174.228 39.6755ZM166.319 32.7738C166.801 33.0424 166.975 33.6513 166.706 34.1339C166.438 34.6164 165.829 34.7899 165.346 34.5213L166.319 32.7738ZM156.306 29.7161C155.813 29.4668 155.616 28.8651 155.865 28.3724C156.115 27.8796 156.716 27.6822 157.209 27.9316L156.306 29.7161ZM147.884 23.4637C148.387 23.6911 148.611 24.2835 148.383 24.7868C148.156 25.29 147.563 25.5136 147.06 25.2862L147.884 23.4637ZM137.634 21.2901C137.12 21.0868 136.869 20.5058 137.072 19.9922C137.275 19.4787 137.857 19.2272 138.37 19.4305L137.634 21.2901ZM128.667 15.8672C129.19 16.0444 129.47 16.6121 129.293 17.1352C129.116 17.6583 128.548 17.9387 128.025 17.7615L128.667 15.8672ZM118.249 14.7271C117.717 14.577 117.408 14.0245 117.558 13.493C117.708 12.9615 118.261 12.6523 118.792 12.8023L118.249 14.7271ZM108.773 10.2492C109.312 10.3719 109.649 10.9079 109.526 11.4464C109.403 11.9848 108.867 12.3219 108.329 12.1992L108.773 10.2492ZM98.292 10.1724C97.7481 10.0763 97.3851 9.55756 97.4812 9.0137C97.5773 8.46984 98.0961 8.10684 98.6399 8.20293L98.292 10.1724ZM88.4289 6.64331C88.9766 6.71429 89.3631 7.21583 89.2921 7.76353C89.2211 8.31124 88.7196 8.6977 88.1719 8.62672L88.4289 6.64331ZM77.9729 7.52626C77.4227 7.47837 77.0155 6.99352 77.0634 6.44331C77.1113 5.89311 77.5961 5.4859 78.1463 5.53379L77.9729 7.52626ZM67.8584 4.83625C68.41 4.86348 68.8351 5.33273 68.8079 5.88434C68.7807 6.43595 68.3114 6.86105 67.7598 6.83381L67.8584 4.83625ZM57.4949 6.50085C56.9427 6.49187 56.5023 6.03693 56.5113 5.48472C56.5203 4.9325 56.9752 4.49213 57.5274 4.50112L57.4949 6.50085ZM47.223 4.4845C47.7752 4.47768 48.2284 4.91983 48.2352 5.47208C48.2421 6.02432 47.7999 6.47753 47.2477 6.48435L47.223 4.4845ZM36.9874 6.74082C36.4355 6.76124 35.9716 6.3304 35.9511 5.77849C35.9307 5.22658 36.3616 4.76261 36.9135 4.74219L36.9874 6.74082ZM26.592 5.23616C27.1433 5.20409 27.6163 5.62506 27.6484 6.17642C27.6804 6.72777 27.2594 7.20072 26.7081 7.23278L26.592 5.23616ZM16.4763 7.92193C15.9256 7.96382 15.4452 7.55135 15.4033 7.00066C15.3614 6.44997 15.7739 5.96958 16.3246 5.92769L16.4763 7.92193ZM6.06641 6.78824C6.61641 6.73803 7.10297 7.14319 7.15317 7.69319C7.20339 8.24319 6.79822 8.72975 6.24822 8.77996L6.06641 6.78824ZM212.286 65.845C210.901 64.7936 209.525 63.7581 208.157 62.7385L209.353 61.1353C210.725 62.1583 212.105 63.1971 213.495 64.2518L212.286 65.845ZM199.883 56.6849C197.043 54.6495 194.239 52.6846 191.465 50.7885L192.593 49.1373C195.38 51.0423 198.197 53.0158 201.048 55.0593L199.883 56.6849ZM182.914 45.1032C179.992 43.2168 177.099 41.4082 174.228 39.6755L175.261 37.9632C178.151 39.7068 181.061 41.5262 183.999 43.423L182.914 45.1032ZM165.346 34.5213C162.318 32.8357 159.307 31.2347 156.306 29.7161L157.209 27.9316C160.235 29.4626 163.269 31.0759 166.319 32.7738L165.346 34.5213ZM147.06 25.2862C143.92 23.8669 140.781 22.5357 137.634 21.2901L138.37 19.4305C141.547 20.6881 144.715 22.0316 147.884 23.4637L147.06 25.2862ZM128.025 17.7615C124.788 16.6647 121.532 15.6542 118.249 14.7271L118.792 12.8023C122.109 13.7388 125.397 14.7595 128.667 15.8672L128.025 17.7615ZM108.329 12.1992C105.024 11.4459 101.681 10.7712 98.292 10.1724L98.6399 8.20293C102.061 8.80732 105.435 9.48852 108.773 10.2492L108.329 12.1992ZM88.1719 8.62672C84.8266 8.19322 81.4297 7.82714 77.9729 7.52626L78.1463 5.53379C81.63 5.83701 85.0548 6.20606 88.4289 6.64331L88.1719 8.62672ZM67.7598 6.83381C64.4003 6.66796 60.981 6.55758 57.4949 6.50085L57.5274 4.50112C61.0345 4.55819 64.4758 4.66925 67.8584 4.83625L67.7598 6.83381ZM47.2477 6.48435C43.8923 6.52579 40.4741 6.61177 36.9874 6.74082L36.9135 4.74219C40.4156 4.61257 43.8503 4.52616 47.223 4.4845L47.2477 6.48435ZM26.7081 7.23278C23.3617 7.42737 19.9525 7.65748 16.4763 7.92193L16.3246 5.92769C19.8119 5.6624 23.233 5.43148 26.592 5.23616L26.7081 7.23278ZM6.24822 8.77996C4.54739 8.93522 2.83075 9.09786 1.09788 9.26776L0.90272 7.2773C2.63989 7.10698 4.36098 6.94392 6.06641 6.78824L6.24822 8.77996Z" fill="#121F26" fill-opacity="0.32"/>
</svg>
